<svg width="21" height="19" fill="none" xmlns="http://www.w3.org/2000/svg"><path fill-rule="evenodd" clip-rule="evenodd" d="M11.84.79a1.532 1.532 0 00-2.68 0L.208 16.643C-.384 17.693.36 19 1.548 19h17.904c1.188 0 1.932-1.307 1.34-2.356L11.84.79zM9.041 9.492l.46 3.784h1.737l.442-3.784V6.637H9.041v2.856zm1.328 7.325c.398 0 .738-.119 1.022-.357.284-.237.425-.523.425-.856 0-.334-.141-.62-.425-.857a1.538 1.538 0 00-1.022-.357c-.397 0-.738.119-1.021.357-.284.238-.426.524-.426.857 0 .333.142.619.425.857a1.54 1.54 0 001.022.357z" fill="#2E2E2E"/></svg>