<svg width="24" height="22" fill="none" xmlns="http://www.w3.org/2000/svg"><path d="M23.522 18.22h-2.558V9.326h1.195v5.928a.478.478 0 10.957 0V9.327h.406a.478.478 0 000-.956h-4.685V1.438a.478.478 0 00-.479-.478H5.641a.478.478 0 00-.478.478v6.933H.478a.478.478 0 000 .956h.406v8.892H.478a.478.478 0 00-.478.478v1.865c0 .264.214.478.478.478h23.044a.478.478 0 00.478-.478v-1.865a.478.478 0 00-.478-.478zm-4.685-8.893h1.171v8.892h-1.171V9.327zM6.12 1.917h11.76V8.37h-1.15V3.637a.478.478 0 00-.478-.478H7.748a.478.478 0 00-.478.478v4.734H6.12V1.916zm11.76 7.41v8.892h-1.15V9.327h1.15zm-5.426-.956V4.116h3.32V8.37h-3.32zm3.32.956v8.892h-1.168V9.327h1.168zm-2.125 0v8.892h-1.195V9.327h1.195zM8.226 8.37V4.116h3.272V8.37H8.226zm3.272.956v8.892h-1.147V9.327h1.147zm-2.104 0v8.892H8.226V9.327h1.168zm-3.274 0h1.15v8.892H6.12V9.327zm-2.176 0h1.22v8.892h-1.22V9.327zm-2.103 0h1.147v8.892H1.841V9.327zm21.203 10.757H.956v-.909h22.088v.909z" fill="#2E2E2E"/><path d="M22.638 16.307a.478.478 0 00-.478.478v.334a.478.478 0 10.956 0v-.334a.478.478 0 00-.478-.478z" fill="#2E2E2E"/></svg>