<svg width="45" height="45" fill="none" xmlns="http://www.w3.org/2000/svg"><path d="M21.73 39.97h-4.729l.5-2.115 3.01 1.505 1.22.61zm6.269 0h-4.73l1.22-.61 3.01-1.505.5 2.115z" stroke="url(#paint0_linear)" stroke-width="3"/><path d="M12.534 14.72h0zm0 0s0 0 0 0h0z" stroke="url(#paint1_linear)" stroke-width="3"/><mask id="a" fill="#fff"><path d="M12.026 22.62l4.236 2.118a1.318 1.318 0 001.18-2.358l-4.237-2.118a1.318 1.318 0 00-1.18 2.358z"/></mask><path d="M16.262 24.738l1.342-2.683-1.342 2.683zm1.18-2.358l1.341-2.683-1.341 2.683zm-4.237-2.118l-1.342 2.683 1.342-2.683zm-1.769.59l2.684 1.341-2.684-1.342zm-.752 4.451l4.237 2.119 2.683-5.367-4.236-2.118-2.684 5.366zm4.236 2.118a4.318 4.318 0 005.794-1.93l-5.366-2.684a1.682 1.682 0 012.256-.752l-2.684 5.366zm5.794-1.93a4.318 4.318 0 00-1.93-5.794L16.1 25.063a1.682 1.682 0 01-.752-2.256l5.366 2.683zm-1.93-5.794l-4.237-2.119-2.684 5.367 4.237 2.118 2.683-5.366zm-4.237-2.118a4.318 4.318 0 00-5.794 1.93l5.367 2.684a1.682 1.682 0 01-2.257.752l2.684-5.366zm-5.794 1.93a4.318 4.318 0 001.931 5.794l2.684-5.366a1.682 1.682 0 01.752 2.256L8.753 19.51z" fill="url(#paint2_linear)" mask="url(#a)"/><mask id="b" fill="#fff"><path d="M12.026 29.504l4.236 2.118a1.318 1.318 0 001.18-2.358l-4.237-2.118a1.318 1.318 0 00-1.18 2.358z"/></mask><path d="M16.262 31.622l1.342-2.683-1.342 2.683zm1.18-2.358l1.341-2.683-1.341 2.683zm-4.237-2.118l-1.342 2.683 1.342-2.683zm-2.52 5.041l4.236 2.119 2.683-5.367-4.236-2.118-2.684 5.366zm4.235 2.119a4.318 4.318 0 005.794-1.932l-5.366-2.683a1.682 1.682 0 012.256-.752l-2.684 5.367zm5.794-1.932a4.318 4.318 0 00-1.93-5.793l-2.685 5.366a1.682 1.682 0 01-.751-2.256l5.366 2.683zm-1.93-5.793l-4.237-2.118-2.684 5.366 4.237 2.118 2.683-5.366zm-4.237-2.118a4.318 4.318 0 00-5.794 1.93l5.367 2.684a1.682 1.682 0 01-2.257.752l2.684-5.366zm-5.794 1.93a4.318 4.318 0 001.931 5.794l2.684-5.366a1.681 1.681 0 01.752 2.256l-5.367-2.683z" fill="url(#paint3_linear)" mask="url(#b)"/><path d="M32.466 14.72s0 0 0 0h0z" stroke="url(#paint4_linear)" stroke-width="3"/><mask id="c" fill="#fff"><path d="M31.796 20.262l-4.237 2.118a1.318 1.318 0 001.18 2.358l4.236-2.118a1.318 1.318 0 10-1.18-2.358z"/></mask><path d="M31.796 20.262l1.341 2.683-1.341-2.683zm-4.237 2.118l1.342 2.683-1.342-2.683zm-.59 1.769l2.684-1.342-2.683 1.342zm1.77.59l-1.342-2.684 1.341 2.683zm4.236-2.119l-1.342-2.683 1.342 2.683zm.59-1.769l-2.684 1.342 2.683-1.342zm-3.111-3.273l-4.236 2.119 2.683 5.366 4.236-2.118-2.683-5.367zm-4.236 2.119a4.318 4.318 0 00-1.932 5.793l5.367-2.683c.415.83.078 1.84-.752 2.256l-2.683-5.366zm-1.932 5.793a4.318 4.318 0 005.794 1.931l-2.684-5.366a1.682 1.682 0 012.257.752l-5.367 2.683zm5.794 1.931l4.236-2.118-2.683-5.366-4.236 2.118 2.683 5.366zm4.236-2.118a4.318 4.318 0 001.931-5.794l-5.366 2.684a1.682 1.682 0 01.752-2.256l2.683 5.366zm1.931-5.793a4.318 4.318 0 00-5.794-1.932l2.684 5.367a1.682 1.682 0 01-2.256-.752l5.367-2.683z" fill="url(#paint5_linear)" mask="url(#c)"/><path d="M32.466 28.488s0 0 0 0h0z" stroke="url(#paint6_linear)" stroke-width="3"/><defs><linearGradient id="paint0_linear" x1="22.5" y1="3.53" x2="22.5" y2="41.47" gradientUnits="userSpaceOnUse"><stop stop-color="#F18D17"/><stop offset="1" stop-color="#FF4D00"/></linearGradient><linearGradient id="paint1_linear" x1="14.734" y1="13.238" x2="14.734" y2="17.994" gradientUnits="userSpaceOnUse"><stop stop-color="#F18D17"/><stop offset="1" stop-color="#FF4D00"/></linearGradient><linearGradient id="paint2_linear" x1="14.734" y1="20.122" x2="14.734" y2="24.878" gradientUnits="userSpaceOnUse"><stop stop-color="#F18D17"/><stop offset="1" stop-color="#FF4D00"/></linearGradient><linearGradient id="paint3_linear" x1="14.734" y1="27.006" x2="14.734" y2="31.762" gradientUnits="userSpaceOnUse"><stop stop-color="#F18D17"/><stop offset="1" stop-color="#FF4D00"/></linearGradient><linearGradient id="paint4_linear" x1="30.267" y1="13.238" x2="30.267" y2="17.994" gradientUnits="userSpaceOnUse"><stop stop-color="#F18D17"/><stop offset="1" stop-color="#FF4D00"/></linearGradient><linearGradient id="paint5_linear" x1="30.267" y1="20.122" x2="30.267" y2="24.878" gradientUnits="userSpaceOnUse"><stop stop-color="#F18D17"/><stop offset="1" stop-color="#FF4D00"/></linearGradient><linearGradient id="paint6_linear" x1="30.267" y1="27.006" x2="30.267" y2="31.762" gradientUnits="userSpaceOnUse"><stop stop-color="#F18D17"/><stop offset="1" stop-color="#FF4D00"/></linearGradient></defs></svg>