<svg width="24" height="24" fill="none" xmlns="http://www.w3.org/2000/svg"><path d="M19.754 15h.538A2.708 2.708 0 0023 12.292v0a2.708 2.708 0 00-2.708-2.709h-.538l-4.57-3.872A3 3 0 0013.244 5H7.678a3 3 0 00-2.516 1.366l-.572.881a2.385 2.385 0 01-2 1.086v0A1.59 1.59 0 001 9.923V13a2 2 0 002 2h.292m11.916 0H7.5" stroke="#2E2E2E" stroke-linecap="round"/><path d="M12.417 7v2a1 1 0 001 1H17M7.375 7l-.726 1.583A1 1 0 007.56 10h2.566" stroke="#2E2E2E" stroke-linecap="round"/><circle cx="17.5" cy="15.5" r="2" stroke="#2E2E2E"/><circle cx="5.5" cy="15.5" r="2" stroke="#2E2E2E"/><path stroke="#2E2E2E" stroke-linecap="round" d="M1.5 18.5h21"/></svg>