<svg width="24" height="24" fill="none" xmlns="http://www.w3.org/2000/svg"><rect x="-.5" y="-.5" width="12" height="23" rx="2.5" transform="matrix(0 -1 -1 0 23 14)" stroke="#2E2E2E" stroke-linecap="round"/><rect x="-.5" y="-.5" width="4" height="17" rx=".5" transform="matrix(0 -1 -1 0 20 14)" stroke="#2E2E2E" stroke-linecap="round"/><path d="M13 16.5a.5.5 0 00-1 0h1zM12 21a.5.5 0 001 0h-1zm4.5-4.5a.5.5 0 00-1 0h1zm-7 0a.5.5 0 00-1 0h1zm2.5 0V21h1v-4.5h-1zm3.5 0v1h1v-1h-1zm-7 0v1h1v-1h-1zm0 1A2.5 2.5 0 016 20v1a3.5 3.5 0 003.5-3.5h-1zm7 0A3.5 3.5 0 0019 21v-1a2.5 2.5 0 01-2.5-2.5h-1z" fill="#2E2E2E"/><path stroke="#2E2E2E" stroke-linecap="round" d="M19 5h2m-6.5 0h2"/></svg>