<svg width="27" height="16" fill="none" xmlns="http://www.w3.org/2000/svg"><path d="M16.413 1.004c.712.101 1.41.28 2.1.492 1.203.37 2.339.886 3.407 1.554a.522.522 0 00.261.075c1.255.005 2.51.003 3.763.004.1 0 .201.01.302.017 0 .024.004.035 0 .04l-.177.27c-.426.652-.79 1.335-1.004 2.09-.023.08-.028.148.027.228 1.117 1.604 1.473 3.365 1.006 5.263-.409 1.664-1.363 2.962-2.813 3.881-1.037.658-2.181.97-3.405.977a5.943 5.943 0 01-1.527-.196 6.405 6.405 0 01-3.136-1.85c-.114-.122-.22-.248-.342-.385-.457.68-.907 1.35-1.367 2.038l-1.345-2.01c-.03.017-.04.018-.045.024a.212.212 0 00-.027.028c-1.045 1.234-2.36 1.99-3.962 2.244a6.19 6.19 0 01-2.639-.148 6.292 6.292 0 01-3.11-1.94 6.288 6.288 0 01-1.527-3.25C.633 9.302.9 8.194.967 7.925a6.417 6.417 0 01.996-2.161.25.25 0 00.028-.186c-.189-.694-.515-1.324-.896-1.928-.097-.154-.213-.296-.32-.444v-.05c.021.002.042.006.063.006 1.284 0 2.567.001 3.851-.002a.326.326 0 00.166-.053 13.831 13.831 0 012.872-1.394 15.61 15.61 0 012.23-.605 17.862 17.862 0 012.218-.29c1.818-.14 3.271.052 4.238.187zm-1.61 8.478c0 2.82 2.287 5.122 5.096 5.111 2.82-.01 5.097-2.248 5.095-5.098-.003-2.937-2.385-5.145-5.204-5.088-2.783.058-4.961 2.301-4.987 5.075zM7.16 4.388c-2.742-.024-5.132 2.265-5.084 5.18.044 2.718 2.285 5.023 5.141 4.998 2.794-.024 5.039-2.305 5.044-5.067a5.084 5.084 0 00-5.1-5.111zm.253-1.33c1.55.095 2.91.634 4.06 1.68 1.146 1.043 1.819 2.345 2.063 3.875.251-1.512.906-2.802 2.031-3.834 1.128-1.034 2.47-1.577 3.994-1.692-1.808-.804-3.714-1.145-5.677-1.183-2.23-.044-4.4.285-6.47 1.154z"/><path d="M19.88 6.766h0c-1.408-.025-2.653 1.145-2.654 2.653l2.655-2.653zm0 0h.01m-.01 0h.01m0 0a2.646 2.646 0 012.657 2.645A2.66 2.66 0 0120 12.076h0m-.11-5.31l.11 5.31m0 0a2.66 2.66 0 01-2.774-2.656L20 12.076zm-.119-.094a2.567 2.567 0 002.566-2.563v0a2.558 2.558 0 00-2.55-2.561 2.571 2.571 0 00-2.576 2.55v.001a2.58 2.58 0 002.56 2.573zm0 0s0 0 0 0l.002-.5-.002.5s0 0 0 0z" fill="#fff" stroke="#2E2E2E"/><path d="M7.092 6.266a3.144 3.144 0 013.154 3.149 3.162 3.162 0 11-6.321.001c.003-1.802 1.488-3.18 3.167-3.15zm2.055 3.146a2.06 2.06 0 00-2.083-2.054c-1.114.002-2.048.942-2.045 2.06a2.083 2.083 0 002.07 2.065c1.128.003 2.061-.937 2.058-2.07zM19.89 8.373a1.047 1.047 0 01.007 2.092 1.042 1.042 0 01-1.055-1.036 1.039 1.039 0 011.049-1.056z"/><path d="M7.087 8.363a1.056 1.056 0 11.003 2.112 1.042 1.042 0 01-1.06-1.062c0-.59.461-1.049 1.057-1.05z"/></svg>