<svg width="28" height="25" fill="none" xmlns="http://www.w3.org/2000/svg"><path d="M9.674 22.273c1.284.909 4.686 2.18 8.02 0m-6.829-2.331c.815.584 3.108 1.403 5.765 0" stroke="#2E2E2E" stroke-linecap="round"/><path d="M.927 11.203l11.054 1.53a.15.15 0 01.092.248l-1.537 1.737a.15.15 0 01-.112.051H3.73c-1.053-.047-1.533-.601-1.713-.972L.774 11.421a.15.15 0 01.153-.218zm15.406 1.023l-1.388 1.53a.15.15 0 00.086.25l11.014 1.83c.118.02.21-.1.162-.209l-.814-1.83c-.509-1.204-1.062-1.566-1.649-1.62h-7.3a.15.15 0 00-.111.05z" stroke="#2E2E2E"/><path d="M13.534 4.352v6.37M11.84 1.389l.52 2.563a.5.5 0 00.49.4h1.431a.5.5 0 00.489-.395l.548-2.568m-4.933 11.125v-1.292a.5.5 0 01.5-.5h5.228a.5.5 0 01.5.5v.874m-6.228 2.36v1.054a.5.5 0 00.5.5h5.228a.5.5 0 00.5-.5v-1.162m-.955 1.662c0 1.093-.967 1.98-2.16 1.98s-2.16-.887-2.16-1.98" stroke="#2E2E2E"/></svg>