<svg width="23" height="22" fill="none" xmlns="http://www.w3.org/2000/svg"><path d="M3.733 3.996a.5.5 0 100-1v1zm1.75-1a.5.5 0 000 1v-1zm15.12 4.645v12.86h1V7.64h-1zm-17.98 12.86V7.48h-1V20.5h1zM1.686 2.995V1.553h-1v1.443h1zm0-1.443h19.625v-1H1.687v1zm19.625 0v1.443h1V1.553h-1zM4.28 20.5H2.622v1h1.659v-1zm0-12.859h14.663v-1H4.28v1zm14.663 0h1.659v-1h-1.66v1zm1.659 12.86h-1.66v1h1.66v-1zm-1.66 0H4.282v1h14.663v-1zm2.369-17.505H5.482v1h15.83v-1zm-17.579 0H2.46v1h1.273v-1zm-1.273 0h-.772v1h.772v-1zm0 4.645H4.28v-1H2.46v1zm-.5-4.145V7.14h1V3.496h-1zm18.425 0V7.14h1V3.496h-1zM3.781 7.14v12.155h1V7.141h-1zm0 12.155V21h1v-1.704h-1zM18.444 7.141v12.155h1V7.141h-1zm0 12.155V21h1v-1.704h-1zm2.868-16.3v1a1 1 0 001-1h-1zm0-1.443h1a1 1 0 00-1-1v1zm-19.625 0v-1a1 1 0 00-1 1h1zm-1 1.443a1 1 0 001 1v-1h-1zM1.623 20.5a1 1 0 001 1v-1h-1zm18.981 0v1a1 1 0 001-1h-1zm1-12.859a1 1 0 00-1-1v1h1zM2.623 7.48a.162.162 0 01-.163.161v-1a.838.838 0 00-.838.839h1z" fill="#2E2E2E"/><circle cx="18.399" cy="5.062" r=".364" fill="#2E2E2E"/><circle cx="17.167" cy="5.695" r=".364" fill="#2E2E2E"/><circle cx="5.204" cy="5.379" r=".364" fill="#2E2E2E"/><rect x="7.139" y="18.196" width="8.722" height="1.87" rx=".935" stroke="#2E2E2E"/><path d="M14.826 13.406c-.151-1.23-1.267-2.798-1.267-2.798-.283.32-.702.919-.702.919-.256-1.184-1.373-2.412-1.373-2.412-1.04.816-1.312 2.564-1.312 2.564-.202-.329-.702-1.07-.702-1.07-1.441 1.475-1.292 3.697-1.292 3.697 0 1.873 1.508 3.39 3.368 3.39a3.37 3.37 0 003.22-2.397" stroke="#2E2E2E" stroke-miterlimit="10" stroke-linecap="round" stroke-linejoin="round"/></svg>