<svg width="19" height="18" fill="none" xmlns="http://www.w3.org/2000/svg"><path d="M9.36 1.939c2.382 0 2.665.008 3.605.05.87.039 1.342.18 1.656.299.416.157.714.345 1.026.648.312.303.505.592.667.996.122.306.267.765.307 1.61.043.914.052 1.188.052 3.502s-.01 2.588-.052 3.502c-.04.845-.185 1.304-.307 1.61a2.678 2.678 0 01-.667.996c-.312.303-.61.491-1.026.648-.314.12-.786.26-1.656.299-.94.041-1.223.05-3.604.05-2.382 0-2.664-.009-3.604-.05-.87-.039-1.342-.18-1.657-.299a2.775 2.775 0 01-1.025-.648 2.677 2.677 0 01-.667-.997c-.123-.305-.268-.764-.307-1.609-.043-.914-.052-1.188-.052-3.502s.008-2.588.052-3.502c.04-.845.185-1.304.307-1.61a2.67 2.67 0 01.667-.996A2.77 2.77 0 014.1 2.288c.315-.12.787-.26 1.657-.299.94-.042 1.222-.05 3.604-.05zm0-1.562c-2.422 0-2.725.01-3.677.052-.95.042-1.598.189-2.165.403a4.389 4.389 0 00-1.58 1A4.24 4.24 0 00.91 3.367C.69 3.918.538 4.548.495 5.47.452 6.395.441 6.69.441 9.044s.01 2.649.054 3.573c.043.923.194 1.553.415 2.104a4.24 4.24 0 001.028 1.535c.496.482.994.779 1.58 1 .567.214 1.216.36 2.165.403.952.042 1.255.052 3.678.052 2.422 0 2.726-.01 3.677-.052.95-.042 1.598-.189 2.165-.403a4.384 4.384 0 001.58-1 4.25 4.25 0 001.029-1.535c.22-.551.371-1.181.415-2.104.043-.924.053-1.22.053-3.573 0-2.354-.01-2.65-.053-3.573-.044-.923-.195-1.553-.415-2.104a4.239 4.239 0 00-1.029-1.535 4.387 4.387 0 00-1.58-1c-.567-.214-1.215-.36-2.165-.403-.951-.042-1.255-.052-3.677-.052z"/><path d="M9.36 4.592c-2.53 0-4.58 1.992-4.58 4.45s2.05 4.451 4.58 4.451c2.53 0 4.58-1.993 4.58-4.45 0-2.459-2.05-4.451-4.58-4.451zm0 7.34c-1.642 0-2.973-1.294-2.973-2.89 0-1.595 1.331-2.889 2.974-2.889 1.642 0 2.973 1.294 2.973 2.89 0 1.595-1.331 2.888-2.973 2.888z"/><path d="M14.703 4.417c0 .285-.242.54-.57.54a.556.556 0 01-.571-.54c0-.285.242-.54.57-.54.329 0 .57.255.57.54z" fill="#fff" stroke="#2E2E2E"/></svg>