<svg width="65" height="42" fill="none" xmlns="http://www.w3.org/2000/svg"><g clip-path="url(#clip0)"><path fill-rule="evenodd" clip-rule="evenodd" d="M48.84 23.79a1.532 1.532 0 00-2.68 0l-8.952 15.854c-.592 1.049.151 2.356 1.34 2.356h17.904c1.189 0 1.932-1.307 1.34-2.356L48.84 23.79zm-2.799 8.703l.46 3.784h1.737l.442-3.784v-2.856h-2.639v2.856zm1.328 7.325c.398 0 .738-.118 1.022-.356.284-.239.425-.524.425-.857 0-.333-.141-.62-.425-.857a1.538 1.538 0 00-1.022-.357 1.54 1.54 0 00-1.022.357c-.283.238-.425.524-.425.857 0 .333.142.619.425.857.284.237.625.356 1.022.356z" fill="#2E2E2E"/><path d="M31.95 19.259c1.25 2.618.923 5.795-.806 8.883-1.727 3.085-4.818 5.994-8.89 7.94-4.071 1.945-8.276 2.522-11.762 1.927-3.488-.595-6.165-2.337-7.416-4.955-1.251-2.618-.924-5.795.804-8.883 1.728-3.085 4.818-5.994 8.89-7.94 4.072-1.945 8.277-2.522 11.763-1.927 3.488.595 6.165 2.337 7.416 4.955z" stroke="url(#paint0_linear)" stroke-width="2"/><path d="M27.478 19.179c1.029 2.153.857 4.705-.377 7.138-1.234 2.434-3.513 4.695-6.57 6.156-3.058 1.46-6.249 1.813-8.918 1.244-2.668-.569-4.761-2.038-5.79-4.192-1.03-2.153-.857-4.705.377-7.138 1.234-2.434 3.513-4.695 6.57-6.156 3.058-1.46 6.249-1.813 8.918-1.244 2.668.568 4.76 2.038 5.79 4.192z" stroke="url(#paint1_linear)" stroke-width="2"/><path d="M13.076 11.259c-1.25 2.618-.924 5.795.805 8.883 1.727 3.085 4.818 5.994 8.89 7.94 4.072 1.945 8.277 2.522 11.762 1.927 3.489-.595 6.166-2.337 7.417-4.955 1.25-2.618.924-5.795-.805-8.883-1.727-3.085-4.818-5.994-8.89-7.94-4.072-1.945-8.277-2.522-11.762-1.927-3.489.595-6.166 2.337-7.417 4.955z" fill="#fff" stroke="url(#paint2_linear)" stroke-width="2"/><path d="M17.547 11.179c-1.029 2.153-.857 4.705.377 7.138 1.235 2.434 3.514 4.695 6.571 6.156 3.057 1.46 6.248 1.813 8.918 1.244 2.667-.569 4.76-2.038 5.79-4.192 1.029-2.153.857-4.705-.377-7.138-1.235-2.434-3.514-4.695-6.571-6.156-3.057-1.46-6.248-1.813-8.917-1.244-2.668.568-4.762 2.038-5.79 4.192z" fill="#fff" stroke="url(#paint3_linear)" stroke-width="2"/></g><defs><linearGradient id="paint0_linear" x1="12.339" y1="15.329" x2="22.686" y2="36.984" gradientUnits="userSpaceOnUse"><stop stop-color="#F18D17"/><stop offset="1" stop-color="#FF4D00"/></linearGradient><linearGradient id="paint1_linear" x1="12.339" y1="15.329" x2="20.962" y2="33.375" gradientUnits="userSpaceOnUse"><stop stop-color="#F18D17"/><stop offset="1" stop-color="#FF4D00"/></linearGradient><linearGradient id="paint2_linear" x1="32.686" y1="7.329" x2="22.34" y2="28.984" gradientUnits="userSpaceOnUse"><stop stop-color="#F18D17"/><stop offset="1" stop-color="#FF4D00"/></linearGradient><linearGradient id="paint3_linear" x1="32.686" y1="7.329" x2="24.064" y2="25.375" gradientUnits="userSpaceOnUse"><stop stop-color="#F18D17"/><stop offset="1" stop-color="#FF4D00"/></linearGradient><clipPath id="clip0"><path fill="#fff" transform="matrix(-1 0 0 1 65 0)" d="M0 0h65v42H0z"/></clipPath></defs></svg>