<svg width="24" height="24" fill="none" xmlns="http://www.w3.org/2000/svg"><path d="M16 3.5c0 .55-.318 1.151-1.038 1.656C14.245 5.658 13.201 6 12 6c-1.2 0-2.245-.342-2.962-.844C8.318 4.65 8 4.05 8 3.5c0-.55.318-1.151 1.038-1.656C9.755 1.342 10.799 1 12 1c1.2 0 2.245.342 2.962.844C15.682 2.35 16 2.95 16 3.5zm2.402 5.999c.133.726-.223 1.652-1.305 2.574-1.06.904-2.682 1.666-4.619 2.006-1.937.34-3.728.178-5.043-.309-1.342-.496-2.004-1.244-2.137-1.97-.134-.726.223-1.652 1.304-2.574 1.06-.905 2.682-1.666 4.62-2.006 1.937-.34 3.727-.178 5.043.309 1.34.496 2.004 1.243 2.137 1.97zm3.394 9.536c-.03.73-.765 1.686-2.685 2.47-1.83.748-4.403 1.179-7.275 1.064-2.87-.115-5.4-.75-7.161-1.64-1.849-.936-2.5-1.948-2.47-2.677.03-.73.764-1.686 2.684-2.47 1.83-.748 4.404-1.18 7.275-1.065 2.871.115 5.4.75 7.162 1.641 1.848.936 2.5 1.948 2.47 2.677z"/></svg>