<svg width="49" height="39" fill="none" xmlns="http://www.w3.org/2000/svg"><path d="M27.478 19.179c1.029 2.153.857 4.705-.377 7.138-1.234 2.434-3.513 4.695-6.57 6.156-3.058 1.46-6.249 1.813-8.918 1.244-2.668-.569-4.761-2.038-5.79-4.192-1.03-2.153-.857-4.705.377-7.138 1.234-2.434 3.513-4.695 6.57-6.156 3.058-1.46 6.249-1.813 8.918-1.244 2.668.568 4.76 2.038 5.79 4.192z" stroke="url(#paint0_linear)" stroke-width="2"/><path d="M13.076 11.259c-1.25 2.618-.924 5.795.805 8.883 1.727 3.085 4.818 5.994 8.89 7.94 4.072 1.945 8.277 2.522 11.762 1.927 3.489-.595 6.166-2.337 7.417-4.955 1.25-2.618.924-5.795-.805-8.883-1.727-3.085-4.818-5.994-8.89-7.94-4.072-1.945-8.277-2.522-11.762-1.927-3.489.595-6.166 2.337-7.417 4.955z" fill="#fff" stroke="url(#paint1_linear)" stroke-width="2"/><path d="M17.547 11.179c-1.029 2.153-.857 4.705.377 7.138 1.235 2.434 3.514 4.695 6.571 6.156 3.057 1.46 6.248 1.813 8.918 1.244 2.667-.569 4.76-2.038 5.79-4.192 1.029-2.153.857-4.705-.377-7.138-1.235-2.434-3.514-4.695-6.571-6.156-3.057-1.46-6.248-1.813-8.917-1.244-2.668.568-4.762 2.038-5.79 4.192z" fill="#fff" stroke="url(#paint2_linear)" stroke-width="2"/><defs><linearGradient id="paint0_linear" x1="12.339" y1="15.329" x2="20.962" y2="33.375" gradientUnits="userSpaceOnUse"><stop stop-color="#F18D17"/><stop offset="1" stop-color="#FF4D00"/></linearGradient><linearGradient id="paint1_linear" x1="32.686" y1="7.329" x2="22.34" y2="28.984" gradientUnits="userSpaceOnUse"><stop stop-color="#F18D17"/><stop offset="1" stop-color="#FF4D00"/></linearGradient><linearGradient id="paint2_linear" x1="32.686" y1="7.329" x2="24.064" y2="25.375" gradientUnits="userSpaceOnUse"><stop stop-color="#F18D17"/><stop offset="1" stop-color="#FF4D00"/></linearGradient></defs></svg>