<svg width="40" height="40" fill="none" xmlns="http://www.w3.org/2000/svg"><path fill-rule="evenodd" clip-rule="evenodd" d="M3 20c0 9.374 7.626 17 17 17 9.374 0 17-7.626 17-17 0-9.374-7.626-17-17-17-9.374 0-17 7.626-17 17zm2.55 0c0-7.968 6.482-14.45 14.45-14.45 7.968 0 14.45 6.482 14.45 14.45 0 7.968-6.482 14.45-14.45 14.45-7.968 0-14.45-6.482-14.45-14.45z" fill="url(#paint0_linear)"/><path fill-rule="evenodd" clip-rule="evenodd" d="M19 1.2c0-.662.448-1.2 1-1.2s1 .538 1 1.2v5.6c0 .662-.448 1.2-1 1.2s-1-.538-1-1.2V1.2z" fill="url(#paint1_linear)"/><path fill-rule="evenodd" clip-rule="evenodd" d="M33.2 19c-.662 0-1.2.448-1.2 1s.538 1 1.2 1h5.6c.662 0 1.2-.448 1.2-1s-.538-1-1.2-1h-5.6z" fill="url(#paint2_linear)"/><path fill-rule="evenodd" clip-rule="evenodd" d="M19 33.2c0-.662.448-1.2 1-1.2s1 .538 1 1.2v5.6c0 .662-.448 1.2-1 1.2s-1-.538-1-1.2v-5.6z" fill="url(#paint3_linear)"/><path fill-rule="evenodd" clip-rule="evenodd" d="M1.2 19c-.662 0-1.2.448-1.2 1s.538 1 1.2 1h5.6c.662 0 1.2-.448 1.2-1s-.538-1-1.2-1H1.2z" fill="url(#paint4_linear)"/><path fill-rule="evenodd" clip-rule="evenodd" d="M15 20c0 2.757 2.243 5 5 5s5-2.243 5-5-2.243-5-5-5-5 2.243-5 5zm2.5 0c0-1.378 1.122-2.5 2.5-2.5s2.5 1.122 2.5 2.5-1.122 2.5-2.5 2.5a2.503 2.503 0 01-2.5-2.5z" fill="url(#paint5_linear)"/><defs><linearGradient id="paint0_linear" x1="20" y1="0" x2="20" y2="40" gradientUnits="userSpaceOnUse"><stop stop-color="#F18D17"/><stop offset="1" stop-color="#FF4D00"/></linearGradient><linearGradient id="paint1_linear" x1="20" y1="0" x2="20" y2="40" gradientUnits="userSpaceOnUse"><stop stop-color="#F18D17"/><stop offset="1" stop-color="#FF4D00"/></linearGradient><linearGradient id="paint2_linear" x1="20" y1="0" x2="20" y2="40" gradientUnits="userSpaceOnUse"><stop stop-color="#F18D17"/><stop offset="1" stop-color="#FF4D00"/></linearGradient><linearGradient id="paint3_linear" x1="20" y1="0" x2="20" y2="40" gradientUnits="userSpaceOnUse"><stop stop-color="#F18D17"/><stop offset="1" stop-color="#FF4D00"/></linearGradient><linearGradient id="paint4_linear" x1="20" y1="0" x2="20" y2="40" gradientUnits="userSpaceOnUse"><stop stop-color="#F18D17"/><stop offset="1" stop-color="#FF4D00"/></linearGradient><linearGradient id="paint5_linear" x1="20" y1="0" x2="20" y2="40" gradientUnits="userSpaceOnUse"><stop stop-color="#F18D17"/><stop offset="1" stop-color="#FF4D00"/></linearGradient></defs></svg>