<svg width="25" height="24" fill="none" xmlns="http://www.w3.org/2000/svg"><rect x="4" y="12.5" width="17" height="2" rx="1" stroke="#2E2E2E" stroke-linecap="round"/><path d="M6 9a6.5 6.5 0 0113 0v3.5H6V9z" stroke="#2E2E2E"/><path d="M17 17a.5.5 0 001 0h-1zm0 3a.5.5 0 001 0h-1zm0 3a.5.5 0 001 0h-1zm-5-6a.5.5 0 001 0h-1zm0 3a.5.5 0 001 0h-1zm0 3a.5.5 0 001 0h-1zm-5-6a.5.5 0 001 0H7zm0 3a.5.5 0 001 0H7zm0 3a.5.5 0 001 0H7zm10-7v1h1v-1h-1zm0 3v1h1v-1h-1zm0 3v1h1v-1h-1zm-5-6v1h1v-1h-1zm0 3v1h1v-1h-1zm0 3v1h1v-1h-1zm-5-6v1h1v-1H7zm0 3v1h1v-1H7zm0 3v1h1v-1H7z" fill="#2E2E2E"/><path d="M13.5 0v3m-2 0V0" stroke="#2E2E2E"/></svg>