<svg width="24" height="25" fill="none" xmlns="http://www.w3.org/2000/svg"><path d="M6.705 15.146a7.447 7.447 0 012.46-1.686 7.05 7.05 0 012.876-.55c.983.02 1.953.248 2.853.67a7.502 7.502 0 012.397 1.787M4.384 12.704a10.18 10.18 0 013.473-2.668 9.558 9.558 0 014.192-.897 9.583 9.583 0 014.164 1.034 10.238 10.238 0 013.395 2.78M2 10.393A12.933 12.933 0 016.495 6.65a12.069 12.069 0 015.569-1.28c1.922.027 3.815.518 5.535 1.437A13 13 0 0122 10.676" stroke="#2E2E2E" stroke-linecap="round"/><circle cx="12" cy="18.367" r="1.5" stroke="#2E2E2E"/></svg>