<svg width="24" height="24" fill="none" xmlns="http://www.w3.org/2000/svg"><path d="M6.705 14.779a7.447 7.447 0 012.46-1.686 7.053 7.053 0 012.876-.55c.983.02 1.953.248 2.853.67A7.503 7.503 0 0117.291 15M4.384 12.337a10.18 10.18 0 013.473-2.668 9.558 9.558 0 014.192-.897 9.584 9.584 0 014.164 1.033 10.239 10.239 0 013.395 2.78M2 10.026a12.933 12.933 0 014.495-3.744 12.069 12.069 0 015.569-1.28c1.922.026 3.815.518 5.535 1.437A13 13 0 0122 10.309" stroke="#2E2E2E" stroke-linecap="round"/><circle cx="12" cy="18" r="1.5" stroke="#2E2E2E"/></svg>