<svg width="144" height="136" fill="none" xmlns="http://www.w3.org/2000/svg"><g clip-path="url(#clip0)"><path d="M85.305 80.86a18.418 18.418 0 016.39-10.025c3.316-2.657 7.225-3.999 11.081-4.054a18.324 18.324 0 01-6.39 10.026c-3.316 2.684-7.226 4.026-11.081 4.054z" fill="#fff"/><path d="M139.416 36.377L79.481 57.578c-4.179 1.48-11.054 1.48-15.26 0L4.583 36.404C.377 34.925-1.241 36.24.97 39.335l35.32 45.881c-.675-4.574-1.942-9.943-.055-17.01L46.94 97.871l.135-.082c3.91-2.246 7.603-4.876 10.596-7.012l2.13-1.48 9.14-7.039c9.652-7.697 21.676-17.257 32.434-20.955 9.086-3.122 17.983-3.15 24.885-.246l16.716-21.722c2.265-3.095.62-4.437-3.559-2.958z" fill="#FF4D00"/><path d="M82.502 120.853c-.701.63-1.214 1.095-1.214 1.095-4.718 4.054-9.544 7.369-14.37 9.998l1.078 1.726c2.211 3.095 5.824 3.095 8.035 0l7.953-12.819h-1.482zm1.454 0l1.806-2.931c-.997.904-2.318 2.082-3.289 2.931h1.483z" fill="#272425"/><path d="M40.47 131.289c-7.119.109-13.832-2.822-18.038-7.862-1.995-2.383-4.233-6.218-4.233-11.367 0-.493.027-1.041.081-1.562.377-4.629 1.887-9.285 4.449-12.6.08 1.123.215 2.219.539 3.15 1.671 5.013 4.691 7.232 6.929 8.19 4.098 1.754 9.167 1.124 15.718-1.944.081.246.135.465.243.712l.297.685.485.52c1.024 1.123 2.184 2.164 3.316 3.15.809.712 1.537 1.37 2.157 2-.027.356-.054.767-.081 1.095-.054.63-.135 1.343-.135 2.055 0 1.15.162 2.383.701 3.615l.108.247 1.267 2.054c.944 1.534 1.86 3.013 2.615 4.493-5.392 2.109-10.919 3.287-16.419 3.369zm96.305-52.976c-4.018-15.86-19.52-18.955-34.322-13.86-14.128 4.82-31.49 21.092-40.792 27.583-3.074 2.137-7.873 5.725-12.942 8.656-8.735 5.04-18.306 8.19-21.434-1.232-1.051-3.178.162-10.902 3.963-10.984-10.083.246-16.203 10.408-17.174 21.612-1.24 14.408 11.135 26.159 26.476 25.912 8.142-.109 15.503-2.273 22.054-5.423 6.363-3.041 11.917-7.067 16.635-11.121 10.138-8.738 20.841-20.626 26.422-16.463 0 0 11.405 7.232-6.686 20.927l.027.302c5.177 1.178 10.704-.959 15.233-3.506 3.694-2.082 7.334-4.52 10.245-7.862 5.77-6.683 10.138-12.901 12.403-21.749.727-2.876.62-9.888-.108-12.792z" fill="#FF4D00"/><path d="M59.423 80.86a18.418 18.418 0 00-6.39-10.025c-3.316-2.657-7.225-3.999-11.08-4.054.916 3.808 3.1 7.369 6.39 10.026 3.289 2.684 7.225 4.026 11.08 4.054z" fill="#fff"/><path d="M48.855 68.151s2.32 7.122 3.101 7.89c.782-1.973 1.402-7.177 1.402-7.177l-4.502-.713z" fill="#FF4D00"/><path d="M78.457 6.629c-4.179-1.534-8.385-1.397-12.429-.767-.863.164-2.346.794-3.02.794-.485-.493-.89-.986-.782-1.26 1.7 0 2.211-.383 3.209-1.807 1.618 0 2.966 2.054 5.311-.33l.189-.054c1.321 1.342 3.397 1.753 5.177.41 1.24.63.781 1.507 3.45 1.836-.269.52-.647 1.068-1.105 1.178zm-1.294 2.027l-.135.027c-.7-.191-1.375-.383-2.049-.547l-.027-.165c.513-.52.162-.849.162-1.232.323 0 1.833.219 2.48.657-.242.329-.539.52-.43 1.26zm-5.58-1.972l-.163-.302c.54-.11 1.672-.164 2.508.192-.027.466-.054.904-.108 1.397L73.658 8c-.728-.083-1.483-.137-2.21-.192.161-.466.161-.822.134-1.123zm-1.349 1.178c-.728.027-1.483.082-2.21.164a16.95 16.95 0 01-.405-1.452c.728-.164 1.644-.164 2.561-.219l.108.137c-.54.63.135.959-.054 1.37zm.431 1.807c-1.833 0-3.316-.273-4.745-.356l-.054-.082c1.16-.575 8.682-1.15 9.841.028-.431.41-4.664.41-5.042.41zm-6.578-2.19c0-.44 1.914-.658 2.453-.74.027.465.081.93.135 1.424-.296.301-1.968.466-2.184.493-.108-.575-.027-1.014-.404-1.178zm15.88-3.699c-.296 1.753-2.912.493-2.912-.493 1.887-.63.243-1.561.243-1.643.216-1.534-2.615-.493-1.59 1.287-.702 1.424-3.83.712-4.18-.438 1.106-.548.647-1.37-.108-1.671-.054-.247-.135-.52-.162-.794-.808-.083-.997-.137-.997.767-1.051.712-1.025.903-.08 1.89-.648 1.314-3.695 1.232-4.207.191 1.025-.849.324-1.397-.54-1.479-.754-1.726-2.803 1.863-.808 1.863 0 1.205-2.076 1.643-2.858 1.232-.135-1.232-.674-1.698-1.483-.903-.808.164-1.806-.713-2.157.027.135.301 3.344 2.52 4.287 3.862 1.968 3.78 3.1 3.013 7.819 3.232 2.238-.054 5.338 0 7.71-.794.486-1.013.971-2.328 1.592-2.958.539-1.37 3.693-2.767 3.693-3.452-.539-.219-3.046-.11-3.262.274z" fill="#272425"/><path d="M65.355 5.232l.243.328c1.617-.328-.243-1.917-.243-.328zm10.351.328h.27c1.698-1.122-2.077-1.232-.27 0zm-4.635-1.505l-.512.054c-.216.33-.432.411.108.96.727.027.808-.686.404-1.014zM30.168 35.746l-3.181-10.135-1.051.357 1.644 8.573c.243 1.15-.242 2.328-1.375 2.684l-.674.22-.512-1.699.323-.082c.432-.137.486-.548.405-.904l-1.915-9.97 4.476-1.452 3.72 11.806-1.86.602zm10.677-2.876l-1.618-7.204-.7 7.751-1.969.466-2.777-12.107 1.888-.438 1.644 7.176.701-7.724 1.968-.466 2.75 12.08-1.887.466zm10.139-1.726l-1.644.247c-1.133.192-2.211-.63-2.4-1.78l-1.267-8.383c-.162-1.177.62-2.273 1.752-2.437l1.645-.274c1.133-.165 2.211.63 2.4 1.78l.242 1.561-1.914.302-.189-1.206c-.053-.356-.35-.684-.755-.602l-.674.11c-.43.082-.593.465-.539.821l1.16 7.67c.053.356.323.685.755.602l.674-.11c.43-.054.593-.465.539-.82l-.162-1.042 1.914-.301.216 1.37c.162 1.205-.62 2.3-1.753 2.492zm11.887-3.615l-.27-3.15c-.107-1.178-1.105-2.054-2.264-1.945l-1.78.165-.404-4.958-1.914.164 1.024 12.354 3.694-.302c1.16-.137 2.022-1.15 1.914-2.328zm-1.941-.192c.027.356-.162.74-.593.767l-1.294.11-.324-3.89 1.294-.11c.432-.027.701.302.701.658l.216 2.465zm12.108 2.055l-.19-12.409-3.693.055a2.124 2.124 0 00-2.076 2.164l.027 2.465c0 .63.27 1.096.701 1.397-.431.302-.674.767-.674 1.452l.081 4.958 1.941-.027-.054-4.602c0-.384.216-.74.647-.74l1.267-.027.081 5.314h1.942zm-2.05-7.067l-1.267.027c-.431 0-.647-.356-.674-.712l-.027-2.11c0-.355.216-.711.647-.739l1.268-.027.053 3.56zm14.318 7.669l.432-5.314-2.319-.192-.431 5.314-1.942-.164.998-12.354 1.941.137-.431 5.314 2.318.192.432-5.287 1.914.137-.97 12.381-1.942-.164zm12.671-.302l1.294-8.381a2.112 2.112 0 00-1.752-2.438l-1.645-.274c-1.132-.192-2.21.602-2.4 1.78l-1.294 8.382a2.127 2.127 0 001.753 2.438l1.644.247c1.133.219 2.211-.576 2.4-1.754zm-1.86-.657c-.054.356-.35.657-.755.603l-.674-.11c-.431-.082-.593-.465-.54-.822l1.187-7.67c.054-.355.323-.684.755-.602l.674.11c.431.082.593.465.54.821l-1.187 7.67zm13.398-2.054l.701-3.095c.269-1.123-.432-2.301-1.564-2.548l-3.613-.849-2.777 12.08 1.887.438 1.106-4.848 1.725.41c1.133.275 2.265-.437 2.535-1.588zm-1.807-.794c-.08.356-.377.657-.808.548l-1.268-.302.863-3.807 1.267.301c.405.082.566.52.486.85l-.54 2.41zm10.731 10.902l1.456-12.546-2.588-.821-5.905 11.12 1.834.603 1.024-1.917 2.562.822-.243 2.164 1.86.575zm-1.402-4.52l-1.914-.63 2.453-4.629.027-.137.081.027-.054.137-.593 5.232z" fill="#272425"/><path d="M53.06 121.373l-.108-.246c-.566-1.233-.7-2.466-.7-3.616 0-.712.053-1.424.134-2.054 0-.329.054-.74.081-1.096-.62-.63-1.348-1.288-2.157-2-1.132-.986-2.291-2.054-3.316-3.15l-.485-.52-.297-.685c-.108-.247-.135-.466-.242-.712-6.552 3.068-11.62 3.698-15.719 1.945-2.238-.959-5.257-3.15-6.929-8.191-.323-.931-.458-2.026-.54-3.15-2.56 3.342-4.043 7.971-4.448 12.601a15.54 15.54 0 00-.08 1.561c0 5.177 2.237 9.012 4.205 11.368 4.206 5.012 10.92 7.943 18.037 7.861 5.5-.082 11.028-1.233 16.447-3.369-.755-1.479-1.672-2.958-2.615-4.492l-1.268-2.055z" fill="#fff"/></g><defs><clipPath id="clip0"><path fill="#fff" d="M0 0h144v136H0z"/></clipPath></defs></svg>