<svg width="62" height="58" fill="none" xmlns="http://www.w3.org/2000/svg"><g clip-path="url(#clip0)"><path d="M36.728 34.484a7.846 7.846 0 012.752-4.275c1.428-1.133 3.11-1.706 4.77-1.729a7.805 7.805 0 01-2.75 4.275c-1.428 1.145-3.111 1.718-4.772 1.73z" fill="#fff"/><path d="M60.026 15.513l-25.805 9.042c-1.8.63-4.76.63-6.57 0l-25.678-9.03c-1.81-.63-2.507-.07-1.555 1.25l15.207 19.567c-.29-1.951-.836-4.24-.024-7.255L20.21 41.74l.058-.035c1.683-.958 3.273-2.08 4.562-2.99l.917-.631 3.935-3.003c4.156-3.282 9.333-7.36 13.965-8.936 3.912-1.332 7.743-1.344 10.715-.105l7.197-9.264c.975-1.32.267-1.892-1.533-1.262z" fill="#FF4D00"/><path d="M35.522 51.54l-.523.467a35.804 35.804 0 01-6.187 4.264l.464.736c.952 1.32 2.508 1.32 3.46 0l3.424-5.467h-.638zm.626 0l.777-1.25a111 111 0 01-1.416 1.25h.639z" fill="#0D0D0D"/><path d="M17.424 55.99c-3.064.047-5.955-1.203-7.766-3.352-.859-1.017-1.822-2.652-1.822-4.848 0-.21.011-.444.035-.666.162-1.974.812-3.96 1.915-5.374.035.48.093.947.232 1.344.72 2.138 2.02 3.084 2.983 3.493 1.765.747 3.947.479 6.768-.83.035.105.058.199.105.304l.127.292.21.222c.44.479.94.923 1.427 1.343.348.304.662.584.929.853l-.035.467c-.023.27-.058.573-.058.877 0 .49.07 1.016.302 1.542l.046.105.546.876c.406.654.8 1.285 1.126 1.916-2.322.9-4.702 1.401-7.07 1.436zM58.89 33.398c-1.73-6.764-8.404-8.084-14.777-5.911-6.083 2.056-13.559 8.995-17.564 11.764-1.323.91-3.39 2.441-5.572 3.69-3.76 2.15-7.882 3.494-9.228-.525-.453-1.355.07-4.65 1.706-4.684-4.341.105-6.976 4.439-7.394 9.217-.534 6.144 4.794 11.156 11.399 11.05 3.506-.046 6.675-.969 9.496-2.312 2.74-1.297 5.13-3.014 7.162-4.743 4.365-3.727 8.973-8.796 11.376-7.02 0 0 4.91 3.083-2.879 8.924l.012.129c2.229.502 4.608-.41 6.559-1.496 1.59-.888 3.157-1.927 4.41-3.352 2.485-2.85 4.365-5.502 5.34-9.276.314-1.226.267-4.217-.046-5.455z" fill="#FF4D00"/><path d="M25.585 34.484a7.846 7.846 0 00-2.751-4.275c-1.428-1.133-3.111-1.706-4.771-1.729a7.87 7.87 0 002.751 4.275 7.686 7.686 0 004.771 1.73z" fill="#fff"/><path d="M21.035 29.064s.998 3.038 1.335 3.365c.336-.841.604-3.06.604-3.06l-1.94-.305z" fill="#FF4D00"/><path d="M33.78 2.827c-1.8-.654-3.61-.596-5.351-.327-.372.07-1.01.339-1.3.339-.21-.21-.384-.42-.337-.538.731 0 .952-.163 1.381-.77.697 0 1.277.875 2.287-.14l.081-.024c.57.572 1.463.747 2.23.175.533.269.336.642 1.485.783-.116.222-.279.455-.476.502zm-.557.864l-.058.012c-.302-.082-.592-.163-.882-.234l-.012-.07c.22-.222.07-.362.07-.525.139 0 .79.093 1.068.28-.105.14-.233.222-.186.537zm-2.403-.84l-.07-.13c.233-.046.72-.07 1.08.083-.012.198-.023.385-.046.595l-.07.012c-.314-.035-.639-.058-.952-.082.07-.198.07-.35.058-.479zm-.58.502c-.314.011-.639.035-.952.07-.07-.21-.128-.42-.174-.62.313-.07.708-.07 1.102-.093l.047.059c-.232.268.058.408-.023.584zm.185.77c-.789 0-1.428-.116-2.043-.151l-.023-.035c.5-.246 3.738-.49 4.237.011-.186.176-2.008.176-2.17.176zm-2.832-.934c0-.187.824-.28 1.056-.315.012.198.035.397.058.607-.127.129-.847.199-.94.21-.046-.245-.012-.432-.174-.502zm6.837-1.577c-.127.748-1.254.21-1.254-.21.813-.269.105-.666.105-.701.093-.654-1.126-.21-.685.549-.302.607-1.648.304-1.8-.187.477-.234.28-.584-.046-.713-.023-.105-.058-.222-.07-.338-.348-.035-.429-.059-.429.327-.453.303-.44.385-.035.806-.278.56-1.59.525-1.81.082.44-.363.139-.596-.233-.631-.325-.736-1.207.794-.348.794 0 .514-.894.701-1.23.526-.058-.526-.29-.724-.639-.386-.348.07-.778-.303-.928.012.058.128 1.439 1.075 1.845 1.647.848 1.612 1.335 1.285 3.367 1.379.963-.024 2.298 0 3.32-.34.209-.431.417-.992.684-1.26.233-.585 1.59-1.18 1.59-1.473-.231-.093-1.31-.046-1.404.117z" fill="#fff"/><path d="M28.139 2.231l.105.14c.696-.14-.105-.817-.105-.14zm4.457.141h.116c.731-.48-.894-.526-.116 0zM30.6 1.729l-.22.023c-.093.14-.186.176.046.41.313.01.348-.293.174-.433zM12.99 15.245l-1.37-4.323-.453.152.708 3.656c.104.491-.105.993-.592 1.145l-.29.094-.221-.724.14-.036c.185-.058.208-.233.173-.385l-.824-4.252 1.927-.62 1.602 5.036-.8.257zm4.596-1.227l-.696-3.073-.302 3.306-.848.199-1.195-5.163.812-.187.708 3.06.302-3.294.848-.199 1.184 5.152-.813.199zm4.366-.736l-.708.105c-.488.082-.952-.268-1.034-.759l-.545-3.575c-.07-.502.267-.97.754-1.04l.709-.116a.921.921 0 011.033.76l.104.665-.824.129-.081-.514c-.023-.152-.151-.292-.325-.257l-.29.046c-.186.035-.256.199-.233.35l.5 3.272c.023.151.139.292.325.257l.29-.047c.185-.024.255-.199.232-.35l-.07-.444.824-.129.093.584c.07.514-.267.981-.754 1.063zm5.118-1.542l-.117-1.343a.901.901 0 00-.975-.83l-.766.07-.174-2.114-.824.07.441 5.268 1.59-.128c.5-.058.87-.49.825-.993zm-.836-.082c.011.152-.07.316-.256.327l-.557.047-.14-1.659.558-.046a.276.276 0 01.302.28l.093 1.051zm5.213.876l-.082-5.291-1.59.023a.91.91 0 00-.894.923l.012 1.051a.69.69 0 00.302.596c-.186.129-.29.327-.29.62l.034 2.114.836-.012-.023-1.963c0-.163.093-.315.278-.315l.546-.012.035 2.266h.836zm-.883-3.013l-.545.011c-.186 0-.279-.152-.29-.303l-.012-.9c0-.152.093-.304.279-.315l.545-.012.023 1.519zm6.166 3.27l.185-2.266-.998-.082-.186 2.267-.836-.07.43-5.269.835.058-.185 2.267.998.082.186-2.255.824.058-.418 5.28-.836-.07zm5.455-.128l.557-3.575a.902.902 0 00-.755-1.04l-.708-.116a.904.904 0 00-1.033.759l-.557 3.574a.908.908 0 00.754 1.04l.709.105c.487.094.951-.245 1.033-.747zm-.801-.28c-.024.151-.151.28-.325.256l-.29-.046c-.186-.035-.256-.199-.233-.35l.511-3.272c.023-.152.14-.292.325-.257l.29.047c.186.035.256.199.232.35l-.51 3.271zm5.768-.877l.302-1.32a.9.9 0 00-.673-1.086l-1.556-.362-1.196 5.152.813.186.476-2.067.743.175a.906.906 0 001.091-.678zm-.778-.338c-.034.152-.162.28-.348.233l-.545-.128.371-1.624.546.128c.174.036.243.222.209.363l-.233 1.028zm4.621 4.649l.627-5.35-1.115-.35-2.542 4.742.79.257.44-.818 1.103.35-.104.924.8.245zm-.604-1.928l-.824-.268 1.056-1.975.012-.058.035.012-.023.058-.256 2.231zM22.846 51.762l-.047-.105c-.244-.526-.302-1.052-.302-1.542 0-.304.023-.608.058-.877 0-.14.023-.315.035-.467a18.15 18.15 0 00-.929-.852 19.71 19.71 0 01-1.427-1.344l-.21-.222-.127-.292c-.046-.105-.058-.199-.104-.304-2.821 1.309-5.004 1.577-6.768.83-.964-.41-2.264-1.344-2.984-3.493-.139-.397-.197-.865-.232-1.343-1.102 1.425-1.74 3.399-1.915 5.373a6.568 6.568 0 00-.035.666c0 2.208.964 3.843 1.811 4.848 1.81 2.138 4.701 3.388 7.766 3.353 2.368-.035 4.748-.526 7.081-1.437-.325-.631-.72-1.262-1.126-1.916l-.545-.876z" fill="#fff"/></g><defs><clipPath id="clip0"><path fill="#fff" d="M0 0h62v58H0z"/></clipPath></defs></svg>