<?xml version="1.0" encoding="UTF-8"?><!DOCTYPE svg PUBLIC "-//W3C//DTD SVG 1.1//EN" "http://www.w3.org/Graphics/SVG/1.1/DTD/svg11.dtd"><svg xmlns="http://www.w3.org/2000/svg"><defs><linearGradient id="book-a" x1="22.5" x2="22.5" y1="3.53" y2="41.47" gradientUnits="userSpaceOnUse"><stop stop-color="#F18D17"/><stop offset="1" stop-color="#FF4D00"/></linearGradient><linearGradient id="book-b" x1="14.734" x2="14.734" y1="13.238" y2="17.994" gradientUnits="userSpaceOnUse"><stop stop-color="#F18D17"/><stop offset="1" stop-color="#FF4D00"/></linearGradient><linearGradient id="book-c" x1="14.734" x2="14.734" y1="20.122" y2="24.878" gradientUnits="userSpaceOnUse"><stop stop-color="#F18D17"/><stop offset="1" stop-color="#FF4D00"/></linearGradient><linearGradient id="book-e" x1="14.734" x2="14.734" y1="27.006" y2="31.762" gradientUnits="userSpaceOnUse"><stop stop-color="#F18D17"/><stop offset="1" stop-color="#FF4D00"/></linearGradient><linearGradient id="book-g" x1="30.267" x2="30.267" y1="13.238" y2="17.994" gradientUnits="userSpaceOnUse"><stop stop-color="#F18D17"/><stop offset="1" stop-color="#FF4D00"/></linearGradient><linearGradient id="book-h" x1="30.267" x2="30.267" y1="20.122" y2="24.878" gradientUnits="userSpaceOnUse"><stop stop-color="#F18D17"/><stop offset="1" stop-color="#FF4D00"/></linearGradient><linearGradient id="book-j" x1="30.267" x2="30.267" y1="27.006" y2="31.762" gradientUnits="userSpaceOnUse"><stop stop-color="#F18D17"/><stop offset="1" stop-color="#FF4D00"/></linearGradient><clipPath id="doc-a"><path fill="#fff" d="M0 0h22v23H0z" transform="translate(.412 .085)"/></clipPath><linearGradient id="Frame 9186-a" x1="15.339" x2="25.686" y1="15.329" y2="36.984" gradientUnits="userSpaceOnUse"><stop stop-color="#F18D17"/><stop offset="1" stop-color="#FF4D00"/></linearGradient><linearGradient id="Frame 9186-b" x1="15.339" x2="23.962" y1="15.329" y2="33.375" gradientUnits="userSpaceOnUse"><stop stop-color="#F18D17"/><stop offset="1" stop-color="#FF4D00"/></linearGradient><linearGradient id="Frame 9186-c" x1="35.686" x2="25.34" y1="7.329" y2="28.984" gradientUnits="userSpaceOnUse"><stop stop-color="#F18D17"/><stop offset="1" stop-color="#FF4D00"/></linearGradient><linearGradient id="Frame 9186-d" x1="35.686" x2="27.064" y1="7.329" y2="25.375" gradientUnits="userSpaceOnUse"><stop stop-color="#F18D17"/><stop offset="1" stop-color="#FF4D00"/></linearGradient><linearGradient id="pistol2-b" x1="12.339" x2="22.686" y1="15.329" y2="36.984" gradientUnits="userSpaceOnUse"><stop stop-color="#F18D17"/><stop offset="1" stop-color="#FF4D00"/></linearGradient><linearGradient id="pistol2-c" x1="12.339" x2="20.962" y1="15.329" y2="33.375" gradientUnits="userSpaceOnUse"><stop stop-color="#F18D17"/><stop offset="1" stop-color="#FF4D00"/></linearGradient><linearGradient id="pistol2-d" x1="32.686" x2="22.34" y1="7.329" y2="28.984" gradientUnits="userSpaceOnUse"><stop stop-color="#F18D17"/><stop offset="1" stop-color="#FF4D00"/></linearGradient><linearGradient id="pistol2-e" x1="32.686" x2="24.064" y1="7.329" y2="25.375" gradientUnits="userSpaceOnUse"><stop stop-color="#F18D17"/><stop offset="1" stop-color="#FF4D00"/></linearGradient><clipPath id="pistol2-a"><path fill="#fff" d="M0 0h65v42H0z" transform="matrix(-1 0 0 1 65 0)"/></clipPath><linearGradient id="rings-a" x1="12.339" x2="20.962" y1="15.329" y2="33.375" gradientUnits="userSpaceOnUse"><stop stop-color="#F18D17"/><stop offset="1" stop-color="#FF4D00"/></linearGradient><linearGradient id="rings-b" x1="32.686" x2="22.34" y1="7.329" y2="28.984" gradientUnits="userSpaceOnUse"><stop stop-color="#F18D17"/><stop offset="1" stop-color="#FF4D00"/></linearGradient><linearGradient id="rings-c" x1="32.686" x2="24.064" y1="7.329" y2="25.375" gradientUnits="userSpaceOnUse"><stop stop-color="#F18D17"/><stop offset="1" stop-color="#FF4D00"/></linearGradient><linearGradient id="rule-a" x1="20" x2="20" y2="40" gradientUnits="userSpaceOnUse"><stop stop-color="#F18D17"/><stop offset="1" stop-color="#FF4D00"/></linearGradient><linearGradient id="rule-b" x1="20" x2="20" y2="40" gradientUnits="userSpaceOnUse"><stop stop-color="#F18D17"/><stop offset="1" stop-color="#FF4D00"/></linearGradient><linearGradient id="rule-c" x1="20" x2="20" y2="40" gradientUnits="userSpaceOnUse"><stop stop-color="#F18D17"/><stop offset="1" stop-color="#FF4D00"/></linearGradient><linearGradient id="rule-d" x1="20" x2="20" y2="40" gradientUnits="userSpaceOnUse"><stop stop-color="#F18D17"/><stop offset="1" stop-color="#FF4D00"/></linearGradient><linearGradient id="rule-e" x1="20" x2="20" y2="40" gradientUnits="userSpaceOnUse"><stop stop-color="#F18D17"/><stop offset="1" stop-color="#FF4D00"/></linearGradient><linearGradient id="rule-f" x1="20" x2="20" y2="40" gradientUnits="userSpaceOnUse"><stop stop-color="#F18D17"/><stop offset="1" stop-color="#FF4D00"/></linearGradient><linearGradient id="star-a"><stop offset="0%" stop-color="#F18D17"/><stop offset="100%" stop-color="#FF4D00"/></linearGradient></defs><symbol id="add" viewBox="0 0 24 24"><path d="M4 11h16v2H4z"/><path d="M13 4v16h-2V4z"/></symbol><symbol id="alert" viewBox="0 0 24 24"><path stroke="currentColor" stroke-linecap="round" stroke-linejoin="round" stroke-width="2" d="M10.29 3.86L1.82 18a2 2 0 0 0 1.71 3h16.94a2 2 0 0 0 1.71-3L13.71 3.86a2 2 0 0 0-3.42 0zM12 9v4M12 16v.5"/></symbol><symbol id="arrow" viewBox="0 0 11 6"><path stroke="currentColor" stroke-linecap="round" stroke-linejoin="round" stroke-width="2" d="M1 1l4.5 4L10 1"/></symbol><symbol id="attention" viewBox="0 0 21 19"><path fill="#2E2E2E" fill-rule="evenodd" d="M11.84.79a1.532 1.532 0 0 0-2.68 0L.208 16.643C-.384 17.693.36 19 1.548 19h17.904c1.188 0 1.932-1.307 1.34-2.356L11.84.79zM9.041 9.492l.46 3.784h1.737l.442-3.784V6.637H9.041v2.856zm1.328 7.325c.398 0 .738-.119 1.022-.357.284-.237.425-.523.425-.856 0-.334-.141-.62-.425-.857a1.538 1.538 0 0 0-1.022-.357c-.397 0-.738.119-1.021.357-.284.238-.426.524-.426.857 0 .333.142.619.425.857.284.238.625.357 1.022.357z" clip-rule="evenodd"/></symbol><symbol id="balcony" viewBox="0 0 24 22"><path fill="#2E2E2E" d="M23.522 18.22h-2.558V9.326h1.195v5.928a.478.478 0 1 0 .957 0V9.327h.406a.478.478 0 0 0 0-.956h-4.685V1.438a.478.478 0 0 0-.479-.478H5.641a.478.478 0 0 0-.478.478v6.933H.478a.478.478 0 0 0 0 .956h.406v8.892H.478a.478.478 0 0 0-.478.478v1.865c0 .264.214.478.478.478h23.044a.478.478 0 0 0 .478-.478v-1.865a.478.478 0 0 0-.478-.478zm-4.685-8.893h1.171v8.892h-1.171V9.327zM6.12 1.917h11.76V8.37h-1.15V3.637a.478.478 0 0 0-.478-.478H7.748a.478.478 0 0 0-.478.478v4.734H6.12V1.916zm11.76 7.41v8.892h-1.15V9.327h1.15zm-5.426-.956V4.116h3.32V8.37h-3.32zm3.32.956v8.892h-1.168V9.327h1.168zm-2.125 0v8.892h-1.195V9.327h1.195zM8.226 8.37V4.116h3.272V8.37H8.226zm3.272.956v8.892h-1.147V9.327h1.147zm-2.104 0v8.892H8.226V9.327h1.168zm-3.274 0h1.15v8.892H6.12V9.327zm-2.176 0h1.22v8.892h-1.22V9.327zm-2.103 0h1.147v8.892H1.841V9.327zm21.203 10.757H.956v-.909h22.088v.909z"/><path fill="#2E2E2E" d="M22.638 16.307a.478.478 0 0 0-.478.478v.334a.478.478 0 1 0 .956 0v-.334a.478.478 0 0 0-.478-.478z"/></symbol><symbol id="bath" viewBox="0 0 24 24"><path stroke="#2E2E2E" stroke-linecap="round" d="M1 13.5h22M20.5 21l2 2M3 21l-2 2m0-11v4a6 6 0 0 0 6 6h10a6 6 0 0 0 6-6v-4a1 1 0 0 0-1-1H2a1 1 0 0 0-1 1z"/><path stroke="#2E2E2E" d="M1 14V4.474a3.474 3.474 0 1 1 6.947 0v.686m0 0H12m-4.053 0H3.895"/></symbol><symbol id="bed-light" viewBox="0 0 38 24"><path stroke="#2E2E2E" d="M6 11.11H2a1 1 0 0 0-1 1V22.108a1 1 0 0 0 1 1h34a1 1 0 0 0 1-1v-10a1 1 0 0 0-1-1h-4m-26 0v-9a.999.999 0 0 1 1-1h12m-13 10h13m-13 0v4a1 1 0 0 0 1 1h24a1 1 0 0 0 1-1v-4m0 0H19m13 0v-9a1 1 0 0 0-1-1H19m0 0v10m0-10v9.77" opacity=".3"/></symbol><symbol id="bed" viewBox="0 0 37 26"><path stroke="#2E2E2E" d="M4 11.114H2a1 1 0 0 0-1 1v1.995m3-2.995V2.11a1 1 0 0 1 1-1h27a1 1 0 0 1 1 1v9.005m-29 0h3m26 0h2a1 1 0 0 1 1 1v1.995m-3-2.995h-3m-23 0V6.108a1 1 0 0 1 1-.999h8a1 1 0 0 1 1 1v5.005m-10 0h10m0 0h13m-10 .06V6.109a1 1 0 0 1 1-1h8a1 1 0 0 1 1 1v5.005M1 14.11v8a1 1 0 0 0 1 1h5m-6-9h35m0 0v8a1 1 0 0 1-1 1h-4m0 0v2m0-2H7m0 0v2"/></symbol><symbol id="book" viewBox="0 0 45 45"><path stroke="url(#book-a)" stroke-width="3" d="M21.73 39.97h-4.729l.5-2.115 3.01 1.505 1.22.61zm6.269 0h-4.73l1.22-.61 3.01-1.505.5 2.115z"/><path stroke="url(#book-b)" stroke-width="3" d="M12.534 14.72zm0 0z"/><mask id="book-d" fill="#fff"><path d="M12.026 22.62l4.236 2.118a1.318 1.318 0 0 0 1.18-2.358l-4.237-2.118a1.318 1.318 0 0 0-1.18 2.358z"/></mask><path fill="url(#book-c)" d="M16.262 24.738l1.342-2.683-1.342 2.683zm1.18-2.358l1.341-2.683-1.341 2.683zm-4.237-2.118l-1.342 2.683 1.342-2.683zm-1.769.59l2.684 1.341-2.684-1.342zm-.752 4.451l4.237 2.119 2.683-5.367-4.236-2.118-2.684 5.366zm4.236 2.118a4.318 4.318 0 0 0 5.794-1.93l-5.366-2.684a1.682 1.682 0 0 1 2.256-.752l-2.684 5.366zm5.794-1.93a4.318 4.318 0 0 0-1.93-5.794L16.1 25.063a1.682 1.682 0 0 1-.752-2.256l5.366 2.683zm-1.93-5.794l-4.237-2.119-2.684 5.367 4.237 2.118 2.683-5.366zm-4.237-2.118a4.318 4.318 0 0 0-5.794 1.93l5.367 2.684a1.682 1.682 0 0 1-2.257.752l2.684-5.366zm-5.794 1.93a4.318 4.318 0 0 0 1.931 5.794l2.684-5.366a1.682 1.682 0 0 1 .752 2.256L8.753 19.51z" mask="url(#book-d)"/><mask id="book-f" fill="#fff"><path d="M12.026 29.504l4.236 2.118a1.318 1.318 0 0 0 1.18-2.358l-4.237-2.118a1.318 1.318 0 0 0-1.18 2.358z"/></mask><path fill="url(#book-e)" d="M16.262 31.622l1.342-2.683-1.342 2.683zm1.18-2.358l1.341-2.683-1.341 2.683zm-4.237-2.118l-1.342 2.683 1.342-2.683zm-2.52 5.041l4.236 2.119 2.683-5.367-4.236-2.118-2.684 5.366zm4.235 2.119a4.318 4.318 0 0 0 5.794-1.932l-5.366-2.683a1.682 1.682 0 0 1 2.256-.752l-2.684 5.367zm5.794-1.932a4.318 4.318 0 0 0-1.93-5.793l-2.685 5.366a1.682 1.682 0 0 1-.751-2.256l5.366 2.683zm-1.93-5.793l-4.237-2.118-2.684 5.366 4.237 2.118 2.683-5.366zm-4.237-2.118a4.318 4.318 0 0 0-5.794 1.93l5.367 2.684a1.682 1.682 0 0 1-2.257.752l2.684-5.366zm-5.794 1.93a4.318 4.318 0 0 0 1.931 5.794l2.684-5.366a1.681 1.681 0 0 1 .752 2.256l-5.367-2.683z" mask="url(#book-f)"/><path stroke="url(#book-g)" stroke-width="3" d="M32.466 14.72z"/><mask id="book-i" fill="#fff"><path d="M31.796 20.262l-4.237 2.118a1.318 1.318 0 0 0 1.18 2.358l4.236-2.118a1.318 1.318 0 1 0-1.18-2.358z"/></mask><path fill="url(#book-h)" d="M31.796 20.262l1.341 2.683-1.341-2.683zm-4.237 2.118l1.342 2.683-1.342-2.683zm-.59 1.769l2.684-1.342-2.683 1.342zm1.77.59l-1.342-2.684 1.341 2.683zm4.236-2.119l-1.342-2.683 1.342 2.683zm.59-1.769l-2.684 1.342 2.683-1.342zm-3.111-3.273l-4.236 2.119 2.683 5.366 4.236-2.118-2.683-5.367zm-4.236 2.119a4.318 4.318 0 0 0-1.932 5.793l5.367-2.683c.415.83.078 1.84-.752 2.256l-2.683-5.366zm-1.932 5.793a4.318 4.318 0 0 0 5.794 1.931l-2.684-5.366a1.682 1.682 0 0 1 2.257.752l-5.367 2.683zm5.794 1.931l4.236-2.118-2.683-5.366-4.236 2.118 2.683 5.366zm4.236-2.118a4.318 4.318 0 0 0 1.931-5.794l-5.366 2.684a1.682 1.682 0 0 1 .752-2.256l2.683 5.366zm1.931-5.793a4.318 4.318 0 0 0-5.794-1.932l2.684 5.367a1.682 1.682 0 0 1-2.256-.752l5.367-2.683z" mask="url(#book-i)"/><path stroke="url(#book-j)" stroke-width="3" d="M32.466 28.488z"/></symbol><symbol id="burger" viewBox="0 0 24 25"><path d="M3 5.5h18v2H3zM3 11.5h18v2H3zM3 17.5h18v2H3z"/></symbol><symbol id="car" viewBox="0 0 24 24"><path stroke="#2E2E2E" stroke-linecap="round" d="M19.754 15h.538a2.708 2.708 0 0 0 0-5.417h-.538l-4.57-3.872A3 3 0 0 0 13.244 5H7.678a3 3 0 0 0-2.516 1.366l-.572.881a2.385 2.385 0 0 1-2 1.086A1.59 1.59 0 0 0 1 9.923V13a2 2 0 0 0 2 2h.292m11.916 0H7.5"/><path stroke="#2E2E2E" stroke-linecap="round" d="M12.417 7v2a1 1 0 0 0 1 1H17M7.375 7l-.726 1.583A1 1 0 0 0 7.56 10h2.566"/><circle cx="17.5" cy="15.5" r="2" stroke="#2E2E2E"/><circle cx="5.5" cy="15.5" r="2" stroke="#2E2E2E"/><path stroke="#2E2E2E" stroke-linecap="round" d="M1.5 18.5h21"/></symbol><symbol id="circle-arrow" viewBox="0 0 21 14"><path fill="#fff" d="M10.385.402c-5.52 0-10 2.24-10 5 0 2.24 2.94 4.13 7 4.77v3.23l4-4-4-4v2.73c-3.15-.56-5-1.9-5-2.73 0-1.06 3.04-3 8-3s8 1.94 8 3c0 .73-1.46 1.89-4 2.53v2.05c3.53-.77 6-2.53 6-4.58 0-2.76-4.48-5-10-5z"/></symbol><symbol id="clock" viewBox="0 0 24 24"><path fill="#2E2E2E" fill-rule="evenodd" d="M2.398 12a9.6 9.6 0 0 1 9.6-9.6 9.6 9.6 0 0 1 9.6 9.6 9.6 9.6 0 0 1-9.6 9.6 9.6 9.6 0 0 1-9.6-9.6zm9.6-8.4a8.4 8.4 0 1 0 0 16.8 8.4 8.4 0 0 0 0-16.8zm-.6 10V7.4h1.2v5h4v1.2h-5.2z" clip-rule="evenodd"/></symbol><symbol id="clock01" viewBox="0 0 24 25"><path fill="#2E2E2E" fill-rule="evenodd" d="M2.398 12.367a9.6 9.6 0 0 1 9.6-9.6 9.6 9.6 0 0 1 9.6 9.6 9.6 9.6 0 0 1-9.6 9.6 9.6 9.6 0 0 1-9.6-9.6zm9.6-8.4a8.4 8.4 0 1 0 0 16.8 8.4 8.4 0 0 0 0-16.8zm-.6 10v-6.2h1.2v5h4v1.2h-5.2z" clip-rule="evenodd"/></symbol><symbol id="close-orange" viewBox="0 0 25 25"><path d="M12.5 10.834L18.334 5 20 6.666 14.166 12.5 20 18.334 18.334 20 12.5 14.166 6.666 20 5 18.334l5.834-5.834L5 6.666 6.666 5l5.834 5.834z"/></symbol><symbol id="close" viewBox="0 0 20 20"><path d="M18 2L2 18M2 2l16 16"/></symbol><symbol id="cond" viewBox="0 0 24 24"><rect width="12" height="23" x="-.5" y="-.5" stroke="#2E2E2E" stroke-linecap="round" rx="2.5" transform="matrix(0 -1 -1 0 23 14)"/><rect width="4" height="17" x="-.5" y="-.5" stroke="#2E2E2E" stroke-linecap="round" rx=".5" transform="matrix(0 -1 -1 0 20 14)"/><path fill="#2E2E2E" d="M13 16.5a.5.5 0 0 0-1 0h1zM12 21a.5.5 0 0 0 1 0h-1zm4.5-4.5a.5.5 0 0 0-1 0h1zm-7 0a.5.5 0 0 0-1 0h1zm2.5 0V21h1v-4.5h-1zm3.5 0v1h1v-1h-1zm-7 0v1h1v-1h-1zm0 1A2.5 2.5 0 0 1 6 20v1a3.5 3.5 0 0 0 3.5-3.5h-1zm7 0A3.5 3.5 0 0 0 19 21v-1a2.5 2.5 0 0 1-2.5-2.5h-1z"/><path stroke="#2E2E2E" stroke-linecap="round" d="M19 5h2M14.5 5h2"/></symbol><symbol id="doc" viewBox="0 0 23 24"><g clip-path="url(#doc-a)"><path d="M15.079-.863h-11C3.07-.863 2.246 0 2.246 1.054V14.47h1.833V1.054h11V-.863zm-.917 3.833l5.5 5.75v9.584c0 1.054-.825 1.916-1.833 1.916H7.736c-1.008 0-1.824-.862-1.824-1.916l.01-13.417c0-1.054.815-1.917 1.824-1.917h6.416zm-.916 6.709h5.041l-5.041-5.271v5.27z"/></g></symbol><symbol id="ex" viewBox="0 0 27 16"><path d="M16.413 1.004c.712.101 1.41.28 2.1.492 1.203.37 2.339.886 3.407 1.554a.522.522 0 0 0 .261.075c1.255.005 2.51.003 3.763.004.1 0 .201.01.302.017 0 .024.004.035 0 .04l-.177.27c-.426.652-.79 1.335-1.004 2.09-.023.08-.028.148.027.228 1.117 1.604 1.473 3.365 1.006 5.263-.409 1.664-1.363 2.962-2.813 3.881-1.037.658-2.181.97-3.405.977a5.943 5.943 0 0 1-1.527-.196 6.405 6.405 0 0 1-3.136-1.85c-.114-.122-.22-.248-.342-.385-.457.68-.907 1.35-1.367 2.038l-1.345-2.01c-.03.017-.04.018-.045.024a.212.212 0 0 0-.027.028c-1.045 1.234-2.36 1.99-3.962 2.244a6.19 6.19 0 0 1-2.639-.148A6.292 6.292 0 0 1 2.38 13.7a6.288 6.288 0 0 1-1.527-3.25C.633 9.302.9 8.194.967 7.925c.194-.783.532-1.501.996-2.161a.25.25 0 0 0 .028-.186c-.189-.694-.515-1.324-.896-1.928-.097-.154-.213-.296-.32-.444v-.05c.021.002.042.006.063.006 1.284 0 2.567.001 3.851-.002a.326.326 0 0 0 .166-.053 13.831 13.831 0 0 1 2.872-1.394 15.61 15.61 0 0 1 2.23-.605 17.862 17.862 0 0 1 2.218-.29c1.818-.14 3.271.052 4.238.187zm-1.61 8.478c0 2.82 2.287 5.122 5.096 5.111 2.82-.01 5.097-2.248 5.095-5.098-.003-2.937-2.385-5.145-5.204-5.088-2.783.058-4.961 2.301-4.987 5.075zM7.16 4.388c-2.742-.024-5.132 2.265-5.084 5.18.044 2.718 2.285 5.023 5.141 4.998 2.794-.024 5.039-2.305 5.044-5.067a5.084 5.084 0 0 0-5.1-5.111zm.253-1.33c1.55.095 2.91.634 4.06 1.68 1.146 1.043 1.819 2.345 2.063 3.875.251-1.512.906-2.802 2.031-3.834 1.128-1.034 2.47-1.577 3.994-1.692-1.808-.804-3.714-1.145-5.677-1.183-2.23-.044-4.4.285-6.47 1.154z"/><path fill="#fff" stroke="#2E2E2E" d="M19.88 6.766c-1.408-.025-2.653 1.145-2.654 2.653l2.655-2.653zm0 0h.01m-.01 0h.01m0 0a2.646 2.646 0 0 1 2.657 2.645A2.66 2.66 0 0 1 20 12.076m-.11-5.31l.11 5.31m0 0a2.66 2.66 0 0 1-2.774-2.656L20 12.076zm-.119-.094a2.567 2.567 0 0 0 2.566-2.563 2.558 2.558 0 0 0-2.55-2.561 2.571 2.571 0 0 0-2.576 2.55v.001a2.58 2.58 0 0 0 2.56 2.573zm0 0l.002-.5-.002.5z"/><path d="M7.092 6.266a3.144 3.144 0 0 1 3.154 3.149 3.162 3.162 0 0 1-6.321.001c.003-1.802 1.488-3.18 3.167-3.15zm2.055 3.146a2.06 2.06 0 0 0-2.083-2.054c-1.114.002-2.048.942-2.045 2.06a2.083 2.083 0 0 0 2.07 2.065c1.128.003 2.061-.937 2.058-2.07zM19.89 8.373a1.047 1.047 0 0 1 .007 2.092 1.042 1.042 0 0 1-1.055-1.036 1.039 1.039 0 0 1 1.049-1.056z"/><path d="M7.087 8.363a1.056 1.056 0 1 1 .003 2.112 1.042 1.042 0 0 1-1.06-1.062c0-.59.461-1.049 1.057-1.05z"/></symbol><symbol id="exit" viewBox="0 0 19 20"><path fill="#7F7F7F" d="M1.735.868A.868.868 0 1 0 0 .868V18.22a.868.868 0 0 0 1.735 0V.868z"/><path fill="#7F7F7F" fill-rule="evenodd" d="M.87 1.735A.867.867 0 1 1 .87 0h8.672a.867.867 0 1 1 0 1.735H.87z" clip-rule="evenodd"/><path fill="#7F7F7F" d="M.868 17.354a.868.868 0 0 0 0 1.735h8.676a.868.868 0 0 0 0-1.735H.868z"/><path fill="#7F7F7F" fill-rule="evenodd" d="M4.771 10.412a.868.868 0 0 1 0-1.735h10.852a.868.868 0 0 1 0 1.735H4.77z" clip-rule="evenodd"/><path fill="#7F7F7F" fill-rule="evenodd" d="M17.489 10.158l-4.295 4.295a.868.868 0 0 1-1.227-1.227l3.681-3.682-3.681-3.68a.868.868 0 0 1 1.227-1.228l4.295 4.295a.868.868 0 0 1 0 1.227z" clip-rule="evenodd"/></symbol><symbol id="facebbok" viewBox="0 0 12 22"><path d="M7.647 21.251v-9.334h3.147l.472-3.637h-3.62V5.958c0-1.053.295-1.771 1.812-1.771l1.935-.001V.932C11.058.888 9.91.79 8.573.79c-2.79 0-4.7 1.695-4.7 4.808V8.28H.717v3.638h3.156v9.333h3.774z"/></symbol><symbol id="fan" viewBox="0 0 28 25"><path stroke="#2E2E2E" stroke-linecap="round" d="M9.674 22.273c1.284.909 4.686 2.18 8.02 0M10.865 19.942c.815.584 3.108 1.403 5.765 0"/><path stroke="#2E2E2E" d="M.927 11.203l11.054 1.53a.15.15 0 0 1 .092.248l-1.537 1.737a.15.15 0 0 1-.112.051H3.73c-1.053-.047-1.533-.601-1.713-.972L.774 11.421a.15.15 0 0 1 .153-.218zM16.333 12.226l-1.388 1.53a.15.15 0 0 0 .086.25l11.014 1.83c.118.02.21-.1.162-.209l-.814-1.83c-.509-1.204-1.062-1.566-1.649-1.62h-7.3a.15.15 0 0 0-.111.05z"/><path stroke="#2E2E2E" d="M13.534 4.352v6.37M11.84 1.389l.52 2.563a.5.5 0 0 0 .49.4h1.431a.5.5 0 0 0 .489-.395l.548-2.568m-4.933 11.125v-1.292a.5.5 0 0 1 .5-.5h5.228a.5.5 0 0 1 .5.5v.874m-6.228 2.36v1.054a.5.5 0 0 0 .5.5h5.228a.5.5 0 0 0 .5-.5v-1.162M15.658 16.01c0 1.093-.967 1.98-2.16 1.98s-2.16-.887-2.16-1.98"/></symbol><symbol id="fireplace" viewBox="0 0 23 22"><path fill="#2E2E2E" d="M3.733 3.996a.5.5 0 1 0 0-1v1zm1.75-1a.5.5 0 0 0 0 1v-1zm15.12 4.645v12.86h1V7.64h-1zm-17.98 12.86V7.48h-1V20.5h1zM1.686 2.995V1.553h-1v1.443h1zm0-1.443h19.625v-1H1.687v1zm19.625 0v1.443h1V1.553h-1zM4.28 20.5H2.622v1h1.659v-1zm0-12.859h14.663v-1H4.28v1zm14.663 0h1.659v-1h-1.66v1zm1.659 12.86h-1.66v1h1.66v-1zm-1.66 0H4.282v1h14.663v-1zm2.369-17.505H5.482v1h15.83v-1zm-17.579 0H2.46v1h1.273v-1zm-1.273 0h-.772v1h.772v-1zm0 4.645h1.821v-1h-1.82v1zm-.5-4.145V7.14h1V3.496h-1zm18.425 0V7.14h1V3.496h-1zM3.781 7.14v12.155h1V7.141h-1zm0 12.155V21h1v-1.704h-1zM18.444 7.141v12.155h1V7.141h-1zm0 12.155V21h1v-1.704h-1zm2.868-16.3v1a1 1 0 0 0 1-1h-1zm0-1.443h1a1 1 0 0 0-1-1v1zm-19.625 0v-1a1 1 0 0 0-1 1h1zm-1 1.443a1 1 0 0 0 1 1v-1h-1zM1.623 20.5a1 1 0 0 0 1 1v-1h-1zm18.981 0v1a1 1 0 0 0 1-1h-1zm1-12.859a1 1 0 0 0-1-1v1h1zM2.623 7.48c0 .089-.073.161-.163.161v-1a.838.838 0 0 0-.838.839h1z"/><circle cx="18.399" cy="5.062" r=".364" fill="#2E2E2E"/><circle cx="17.167" cy="5.695" r=".364" fill="#2E2E2E"/><circle cx="5.204" cy="5.379" r=".364" fill="#2E2E2E"/><rect width="8.722" height="1.87" x="7.139" y="18.196" stroke="#2E2E2E" rx=".935"/><path stroke="#2E2E2E" stroke-linecap="round" stroke-linejoin="round" stroke-miterlimit="10" d="M14.826 13.406c-.151-1.23-1.267-2.798-1.267-2.798-.283.32-.702.919-.702.919-.256-1.184-1.373-2.412-1.373-2.412-1.04.816-1.312 2.564-1.312 2.564-.202-.329-.702-1.07-.702-1.07-1.441 1.475-1.292 3.697-1.292 3.697 0 1.873 1.508 3.39 3.368 3.39 1.517 0 2.799-1.01 3.22-2.397"/></symbol><symbol id="food" viewBox="0 0 24 24"><path d="M7 23V10M10 6.5C10 8.547 8.55 10 7 10S4 8.547 4 6.5C4 4.453 5.45 3 7 3s3 1.453 3 3.5zM18 23V10M18 8V2M21 2c0 .475-.083 5.443-.243 5.877-.16.433-.391.82-.676 1.14-.285.321-.617.568-.973.734A2.618 2.618 0 0 1 18 10c-.377 0-.753-.083-1.108-.249a3.004 3.004 0 0 1-.973-.733 3.573 3.573 0 0 1-.676-1.141C15.083 7.443 15 2.475 15 2"/></symbol><symbol id="Frame 9186" viewBox="0 0 61 45"><path stroke="url(#Frame 9186-a)" stroke-width="2" d="M34.95 19.259c1.25 2.618.923 5.795-.806 8.883-1.727 3.085-4.818 5.994-8.89 7.94-4.071 1.945-8.276 2.522-11.762 1.927-3.488-.595-6.165-2.337-7.416-4.955-1.251-2.618-.924-5.795.804-8.883 1.728-3.085 4.818-5.994 8.89-7.94 4.072-1.945 8.277-2.522 11.763-1.927 3.488.595 6.165 2.337 7.416 4.955z"/><path stroke="url(#Frame 9186-b)" stroke-width="2" d="M30.478 19.179c1.029 2.153.857 4.705-.377 7.138-1.234 2.434-3.513 4.695-6.57 6.156-3.058 1.46-6.249 1.813-8.918 1.244-2.668-.569-4.761-2.038-5.79-4.192-1.03-2.153-.857-4.705.377-7.138 1.234-2.434 3.513-4.695 6.57-6.156 3.058-1.46 6.249-1.813 8.918-1.244 2.668.568 4.76 2.038 5.79 4.192z"/><path fill="#fff" stroke="url(#Frame 9186-c)" stroke-width="2" d="M16.076 11.259c-1.25 2.618-.924 5.795.805 8.883 1.727 3.085 4.818 5.994 8.89 7.94 4.072 1.945 8.277 2.522 11.762 1.927 3.489-.595 6.166-2.337 7.417-4.955 1.25-2.618.924-5.795-.805-8.883-1.727-3.085-4.818-5.994-8.89-7.94-4.072-1.945-8.277-2.522-11.762-1.927-3.489.595-6.166 2.337-7.417 4.955z"/><path fill="#fff" stroke="url(#Frame 9186-d)" stroke-width="2" d="M20.547 11.179c-1.029 2.153-.857 4.705.377 7.138 1.235 2.434 3.514 4.695 6.571 6.156 3.057 1.46 6.248 1.813 8.918 1.244 2.667-.569 4.76-2.038 5.79-4.192 1.029-2.153.857-4.705-.377-7.138-1.235-2.434-3.514-4.695-6.571-6.156-3.057-1.46-6.248-1.813-8.917-1.244-2.668.568-4.762 2.038-5.79 4.192z"/></symbol><symbol id="heart" viewBox="0 0 24 24"><path d="M12.001 5.485a6.006 6.006 0 0 0-4.174-1.48 6.017 6.017 0 0 0-4.054 1.789 6.159 6.159 0 0 0-1.769 4.095 6.17 6.17 0 0 0 1.452 4.22L12 22l8.545-7.891a6.17 6.17 0 0 0 1.45-4.224 6.158 6.158 0 0 0-1.773-4.096 6.016 6.016 0 0 0-4.051-1.783A6.006 6.006 0 0 0 12 5.485zm0 0l-3.18 2.929c-.984.897-1.042 2.49-.126 3.464.82.871 2.131.934 3.021.145l1.57-1.391 5.23 5.537"/></symbol><symbol id="house" viewBox="0 0 24 24"><path d="M1 13.2l1.964-2M23 13.2l-1.964-2m0 0L12 2l-9.036 9.2m18.072 0V22h-7.072m-11-10.8V22h7.072m3.928 0v-6h-3.928v6m3.928 0h-3.928"/></symbol><symbol id="instagram" viewBox="0 0 19 18"><path d="M9.36 1.939c2.382 0 2.665.008 3.605.05.87.039 1.342.18 1.656.299.416.157.714.345 1.026.648.312.303.505.592.667.996.122.306.267.765.307 1.61.043.914.052 1.188.052 3.502s-.01 2.588-.052 3.502c-.04.845-.185 1.304-.307 1.61a2.678 2.678 0 0 1-.667.996c-.312.303-.61.491-1.026.648-.314.12-.786.26-1.656.299-.94.041-1.223.05-3.604.05-2.382 0-2.664-.009-3.604-.05-.87-.039-1.342-.18-1.657-.299a2.775 2.775 0 0 1-1.025-.648 2.677 2.677 0 0 1-.667-.997c-.123-.305-.268-.764-.307-1.609-.043-.914-.052-1.188-.052-3.502s.008-2.588.052-3.502c.04-.845.185-1.304.307-1.61.161-.404.355-.693.667-.996A2.77 2.77 0 0 1 4.1 2.288c.315-.12.787-.26 1.657-.299.94-.042 1.222-.05 3.604-.05zm0-1.562c-2.422 0-2.725.01-3.677.052-.95.042-1.598.189-2.165.403a4.389 4.389 0 0 0-1.58 1A4.24 4.24 0 0 0 .91 3.367C.69 3.918.538 4.548.495 5.47.452 6.395.441 6.69.441 9.044c0 2.354.01 2.649.054 3.573.043.923.194 1.553.415 2.104a4.24 4.24 0 0 0 1.028 1.535c.496.482.994.779 1.58 1 .567.214 1.216.36 2.165.403.952.042 1.255.052 3.678.052 2.422 0 2.726-.01 3.677-.052.95-.042 1.598-.189 2.165-.403a4.384 4.384 0 0 0 1.58-1c.496-.482.8-.965 1.029-1.535.22-.551.371-1.181.415-2.104.043-.924.053-1.22.053-3.573 0-2.354-.01-2.65-.053-3.573-.044-.923-.195-1.553-.415-2.104a4.239 4.239 0 0 0-1.029-1.535 4.387 4.387 0 0 0-1.58-1c-.567-.214-1.215-.36-2.165-.403-.951-.042-1.255-.052-3.677-.052z"/><path d="M9.36 4.592c-2.53 0-4.58 1.992-4.58 4.45s2.05 4.451 4.58 4.451c2.53 0 4.58-1.993 4.58-4.45 0-2.459-2.05-4.451-4.58-4.451zm0 7.34c-1.642 0-2.973-1.294-2.973-2.89 0-1.595 1.331-2.889 2.974-2.889 1.642 0 2.973 1.294 2.973 2.89 0 1.595-1.331 2.888-2.973 2.888z"/><path fill="#fff" stroke="#2E2E2E" d="M14.703 4.417c0 .285-.242.54-.57.54a.556.556 0 0 1-.571-.54c0-.285.242-.54.57-.54.329 0 .57.255.57.54z"/></symbol><symbol id="kettle" viewBox="0 0 24 24"><path stroke="#2E2E2E" d="M5.5 9a6.5 6.5 0 0 1 13 0v12.5h-13V9z"/><path stroke="#2E2E2E" stroke-linecap="round" d="M21.806 12c.352-.6 1.694-4 0-6H2l3.521 6"/><path stroke="#2E2E2E" d="M6 8.5h12"/></symbol><symbol id="kitchen" viewBox="0 0 24 24"><rect width="19" height="19" x="2.5" y="3.5" stroke="#2E2E2E" stroke-linecap="round" rx="2.5"/><rect width="13" height="8" x="5.5" y="11.5" stroke="#2E2E2E" stroke-linecap="round" rx="1.5"/><path stroke="#2E2E2E" stroke-linecap="round" d="M21.5 8.5h-19M5.5 6.5h1M9.5 6.5h1M13.5 6.5h1M17.5 6.5h1"/><path stroke="#2E2E2E" d="M16 19v-2a1 1 0 0 0-1-1H9a1 1 0 0 0-1 1v2"/></symbol><symbol id="login" viewBox="0 0 22 22"><circle cx="11" cy="6" r="5" stroke="#7F7F7F" stroke-width="2"/><path stroke="#7F7F7F" stroke-width="2" d="M1 22c0-1.857 1.054-3.637 2.929-4.95C5.804 15.737 8.348 15 11 15s5.196.738 7.071 2.05C19.946 18.363 21 20.143 21 22"/></symbol><symbol id="menu" viewBox="0 0 24 24"><path fill="#2E2E2E" d="M14.602 8.342V7.286h4.175v1.056h-4.175zM14.602 11.481v-1.056h4.175v1.056h-4.175z"/><path fill="#2E2E2E" fill-rule="evenodd" d="M2.255 3.254a.524.524 0 0 1 .366-.154h18.764c.284 0 .517.232.517.52v16.757a.53.53 0 0 1-.52.523H2.62a.517.517 0 0 1-.517-.52V3.622a.53.53 0 0 1 .153-.369zm9.222.902H3.152v15.688h8.325V4.156zm9.375 0h-8.325v15.688h8.325V4.156z" clip-rule="evenodd"/></symbol><symbol id="next" viewBox="0 0 22 22"><path d="M20.5 11L11.534 1M20.5 11l-8.966 10M20.5 11H.5"/></symbol><symbol id="person" viewBox="0 0 24 24"><circle cx="12" cy="7" r="5"/><path d="M2 23c0-1.857 1.054-3.637 2.929-4.95C6.804 16.737 9.348 16 12 16s5.196.738 7.071 2.05C20.946 19.363 22 21.143 22 23"/></symbol><symbol id="pistol2" viewBox="0 0 65 42"><g clip-path="url(#pistol2-a)"><path fill="#2E2E2E" fill-rule="evenodd" d="M48.84 23.79a1.532 1.532 0 0 0-2.68 0l-8.952 15.854c-.592 1.049.151 2.356 1.34 2.356h17.904c1.189 0 1.932-1.307 1.34-2.356L48.84 23.79zm-2.799 8.703l.46 3.784h1.737l.442-3.784v-2.856h-2.639v2.856zm1.328 7.325c.398 0 .738-.118 1.022-.356.284-.239.425-.524.425-.857 0-.333-.141-.62-.425-.857a1.538 1.538 0 0 0-1.022-.357c-.397 0-.738.119-1.022.357-.283.238-.425.524-.425.857 0 .333.142.619.425.857.284.237.625.356 1.022.356z" clip-rule="evenodd"/><path stroke="url(#pistol2-b)" stroke-width="2" d="M31.95 19.259c1.25 2.618.923 5.795-.806 8.883-1.727 3.085-4.818 5.994-8.89 7.94-4.071 1.945-8.276 2.522-11.762 1.927-3.488-.595-6.165-2.337-7.416-4.955-1.251-2.618-.924-5.795.804-8.883 1.728-3.085 4.818-5.994 8.89-7.94 4.072-1.945 8.277-2.522 11.763-1.927 3.488.595 6.165 2.337 7.416 4.955z"/><path stroke="url(#pistol2-c)" stroke-width="2" d="M27.478 19.179c1.029 2.153.857 4.705-.377 7.138-1.234 2.434-3.513 4.695-6.57 6.156-3.058 1.46-6.249 1.813-8.918 1.244-2.668-.569-4.761-2.038-5.79-4.192-1.03-2.153-.857-4.705.377-7.138 1.234-2.434 3.513-4.695 6.57-6.156 3.058-1.46 6.249-1.813 8.918-1.244 2.668.568 4.76 2.038 5.79 4.192z"/><path fill="#fff" stroke="url(#pistol2-d)" stroke-width="2" d="M13.076 11.259c-1.25 2.618-.924 5.795.805 8.883 1.727 3.085 4.818 5.994 8.89 7.94 4.072 1.945 8.277 2.522 11.762 1.927 3.489-.595 6.166-2.337 7.417-4.955 1.25-2.618.924-5.795-.805-8.883-1.727-3.085-4.818-5.994-8.89-7.94-4.072-1.945-8.277-2.522-11.762-1.927-3.489.595-6.166 2.337-7.417 4.955z"/><path fill="#fff" stroke="url(#pistol2-e)" stroke-width="2" d="M17.547 11.179c-1.029 2.153-.857 4.705.377 7.138 1.235 2.434 3.514 4.695 6.571 6.156 3.057 1.46 6.248 1.813 8.918 1.244 2.667-.569 4.76-2.038 5.79-4.192 1.029-2.153.857-4.705-.377-7.138-1.235-2.434-3.514-4.695-6.571-6.156-3.057-1.46-6.248-1.813-8.917-1.244-2.668.568-4.762 2.038-5.79 4.192z"/></g></symbol><symbol id="prev" viewBox="0 0 22 22"><path d="M1.5 11l8.966-10M1.5 11l8.966 10M1.5 11h20"/></symbol><symbol id="pyramid" viewBox="0 0 24 24"><path d="M16 3.5c0 .55-.318 1.151-1.038 1.656C14.245 5.658 13.201 6 12 6c-1.2 0-2.245-.342-2.962-.844C8.318 4.65 8 4.05 8 3.5c0-.55.318-1.151 1.038-1.656C9.755 1.342 10.799 1 12 1c1.2 0 2.245.342 2.962.844C15.682 2.35 16 2.95 16 3.5zM18.402 9.499c.133.726-.223 1.652-1.305 2.574-1.06.904-2.682 1.666-4.619 2.006-1.937.34-3.728.178-5.043-.309-1.342-.496-2.004-1.244-2.137-1.97-.134-.726.223-1.652 1.304-2.574 1.06-.905 2.682-1.666 4.62-2.006 1.937-.34 3.727-.178 5.043.309 1.34.496 2.004 1.243 2.137 1.97zM21.796 19.035c-.03.73-.765 1.686-2.685 2.47-1.83.748-4.403 1.179-7.275 1.064-2.87-.115-5.4-.75-7.161-1.64-1.849-.936-2.5-1.948-2.47-2.677.03-.73.764-1.686 2.684-2.47 1.83-.748 4.404-1.18 7.275-1.065 2.871.115 5.4.75 7.162 1.641 1.848.936 2.5 1.948 2.47 2.677z"/></symbol><symbol id="question" viewBox="0 0 24 24"><path stroke="currentColor" stroke-linecap="round" stroke-linejoin="round" stroke-width="2" d="M12 22c5.523 0 10-4.477 10-10S17.523 2 12 2 2 6.477 2 12s4.477 10 10 10z"/><path stroke="currentColor" stroke-linecap="round" stroke-linejoin="round" stroke-width="2" d="M9.09 9a3 3 0 0 1 5.83 1c0 2-3 3-3 3M12 16v.5"/></symbol><symbol id="ref" viewBox="0 0 24 24"><rect width="21" height="14" x="18.5" y=".5" stroke="#2E2E2E" stroke-linecap="round" rx="2.5" transform="rotate(90 18.5 .5)"/><path stroke="#2E2E2E" stroke-linecap="round" d="M18.5 7.5h-14M7.5 12.5v-2"/></symbol><symbol id="rings" viewBox="0 0 49 39"><path stroke="url(#rings-a)" stroke-width="2" d="M27.478 19.179c1.029 2.153.857 4.705-.377 7.138-1.234 2.434-3.513 4.695-6.57 6.156-3.058 1.46-6.249 1.813-8.918 1.244-2.668-.569-4.761-2.038-5.79-4.192-1.03-2.153-.857-4.705.377-7.138 1.234-2.434 3.513-4.695 6.57-6.156 3.058-1.46 6.249-1.813 8.918-1.244 2.668.568 4.76 2.038 5.79 4.192z"/><path fill="#fff" stroke="url(#rings-b)" stroke-width="2" d="M13.076 11.259c-1.25 2.618-.924 5.795.805 8.883 1.727 3.085 4.818 5.994 8.89 7.94 4.072 1.945 8.277 2.522 11.762 1.927 3.489-.595 6.166-2.337 7.417-4.955 1.25-2.618.924-5.795-.805-8.883-1.727-3.085-4.818-5.994-8.89-7.94-4.072-1.945-8.277-2.522-11.762-1.927-3.489.595-6.166 2.337-7.417 4.955z"/><path fill="#fff" stroke="url(#rings-c)" stroke-width="2" d="M17.547 11.179c-1.029 2.153-.857 4.705.377 7.138 1.235 2.434 3.514 4.695 6.571 6.156 3.057 1.46 6.248 1.813 8.918 1.244 2.667-.569 4.76-2.038 5.79-4.192 1.029-2.153.857-4.705-.377-7.138-1.235-2.434-3.514-4.695-6.571-6.156-3.057-1.46-6.248-1.813-8.917-1.244-2.668.568-4.762 2.038-5.79 4.192z"/></symbol><symbol id="round" viewBox="0 0 24 24"><circle cx="12" cy="12" r="8"/><path d="M9 12H1M12 9V1M23 12h-8M12 23v-8"/></symbol><symbol id="rule" viewBox="0 0 40 40"><path fill="url(#rule-a)" fill-rule="evenodd" d="M3 20c0 9.374 7.626 17 17 17 9.374 0 17-7.626 17-17 0-9.374-7.626-17-17-17-9.374 0-17 7.626-17 17zm2.55 0c0-7.968 6.482-14.45 14.45-14.45 7.968 0 14.45 6.482 14.45 14.45 0 7.968-6.482 14.45-14.45 14.45-7.968 0-14.45-6.482-14.45-14.45z" clip-rule="evenodd"/><path fill="url(#rule-b)" fill-rule="evenodd" d="M19 1.2c0-.662.448-1.2 1-1.2s1 .538 1 1.2v5.6c0 .662-.448 1.2-1 1.2s-1-.538-1-1.2V1.2z" clip-rule="evenodd"/><path fill="url(#rule-c)" fill-rule="evenodd" d="M33.2 19c-.662 0-1.2.448-1.2 1s.538 1 1.2 1h5.6c.662 0 1.2-.448 1.2-1s-.538-1-1.2-1h-5.6z" clip-rule="evenodd"/><path fill="url(#rule-d)" fill-rule="evenodd" d="M19 33.2c0-.662.448-1.2 1-1.2s1 .538 1 1.2v5.6c0 .662-.448 1.2-1 1.2s-1-.538-1-1.2v-5.6z" clip-rule="evenodd"/><path fill="url(#rule-e)" fill-rule="evenodd" d="M1.2 19c-.662 0-1.2.448-1.2 1s.538 1 1.2 1h5.6c.662 0 1.2-.448 1.2-1s-.538-1-1.2-1H1.2z" clip-rule="evenodd"/><path fill="url(#rule-f)" fill-rule="evenodd" d="M15 20c0 2.757 2.243 5 5 5s5-2.243 5-5-2.243-5-5-5-5 2.243-5 5zm2.5 0c0-1.378 1.122-2.5 2.5-2.5s2.5 1.122 2.5 2.5-1.122 2.5-2.5 2.5a2.503 2.503 0 0 1-2.5-2.5z" clip-rule="evenodd"/></symbol><symbol id="rules" viewBox="0 0 18 20"><path d="M18 16H3a1 1 0 0 0 0 2h15v2H3a3 3 0 0 1-3-3V2a2 2 0 0 1 2-2h16v16zM2 14.05c.162-.033.329-.05.5-.05H16V2H2v12.05zM13 7H5V5h8v2z"/></symbol><symbol id="search" viewBox="0 0 24 24"><circle cx="11" cy="10" r="8"/><path d="M16.707 16.293l5.657 5.657"/></symbol><symbol id="share" viewBox="0 0 20 20"><path stroke="currentColor" stroke-linecap="round" stroke-linejoin="round" stroke-width="2" d="M15 6.667a2.5 2.5 0 1 0 0-5 2.5 2.5 0 0 0 0 5zM5 12.5a2.5 2.5 0 1 0 0-5 2.5 2.5 0 0 0 0 5zM15 18.333a2.5 2.5 0 1 0 0-5 2.5 2.5 0 0 0 0 5zM7.158 11.258l5.692 3.317M12.841 5.425L7.159 8.742"/></symbol><symbol id="shower" viewBox="0 0 25 24"><rect width="17" height="2" x="4" y="12.5" stroke="#2E2E2E" stroke-linecap="round" rx="1"/><path stroke="#2E2E2E" d="M6 9a6.5 6.5 0 0 1 13 0v3.5H6V9z"/><path fill="#2E2E2E" d="M17 17a.5.5 0 0 0 1 0h-1zm0 3a.5.5 0 0 0 1 0h-1zm0 3a.5.5 0 0 0 1 0h-1zm-5-6a.5.5 0 0 0 1 0h-1zm0 3a.5.5 0 0 0 1 0h-1zm0 3a.5.5 0 0 0 1 0h-1zm-5-6a.5.5 0 0 0 1 0H7zm0 3a.5.5 0 0 0 1 0H7zm0 3a.5.5 0 0 0 1 0H7zm10-7v1h1v-1h-1zm0 3v1h1v-1h-1zm0 3v1h1v-1h-1zm-5-6v1h1v-1h-1zm0 3v1h1v-1h-1zm0 3v1h1v-1h-1zm-5-6v1h1v-1H7zm0 3v1h1v-1H7zm0 3v1h1v-1H7z"/><path stroke="#2E2E2E" d="M13.5 0v3m-2 0V0"/></symbol><symbol id="sofa" viewBox="0 0 38 24"><path stroke="#2E2E2E" d="M6 10.706H2a1 1 0 0 0-1 1v10a1 1 0 0 0 1 1h34a1 1 0 0 0 1-1v-10a1 1 0 0 0-1-1h-4m-26 0V1.705a.999.999 0 0 1 1-.999h12m-13 10h13m-13 0v4a1 1 0 0 0 1 1h24a1 1 0 0 0 1-1v-4m0 0H19m13 0v-9a1 1 0 0 0-1-1H19m0 0v10m0-10v9.77"/></symbol><symbol id="star" viewBox="0 0 10 10"><path d="M5 0l1.123 3.455h3.632L6.816 5.59 7.94 9.045 5 6.91 2.061 9.045 3.184 5.59.244 3.455h3.633L5 0z"/></symbol><symbol id="strong-box" viewBox="0 0 24 24"><path stroke="#2E2E2E" stroke-linecap="round" d="M19 21.5a2.5 2.5 0 0 0 2.5-2.5V5A2.5 2.5 0 0 0 19 2.5H5A2.5 2.5 0 0 0 2.5 5v14A2.5 2.5 0 0 0 5 21.5h14z"/><rect width="15" height="15" x="-.5" y="-.5" stroke="#2E2E2E" stroke-linecap="round" rx="1.5" transform="matrix(0 -1 -1 0 19 19)"/><path stroke="#2E2E2E" d="M16.5 12a4.482 4.482 0 0 1-1.144 2.998A4.488 4.488 0 0 1 12 16.5a4.488 4.488 0 0 1-3.356-1.502A4.5 4.5 0 1 1 16.5 12z"/></symbol><symbol id="terrace" viewBox="0 0 24 25"><path stroke="#2E2E2E" stroke-linecap="round" d="M2.7 21.367v-4.5m0 0L2 11.893m.7 4.974h3.467a.5.5 0 0 1 .5.5v4m3.033 0V14.5m0 0H7.6h4.9m-2.8 0h2.8m4.667 0h-1.634m0 0v6.868m0-6.868H12.5m6.067 6.868v-4a.5.5 0 0 1 .5-.5H22.3m0 0v4.5m0-4.5l.7-4.974M12.5 14.5V9.05m0 0h6.965a.5.5 0 0 0 .275-.917l-6.965-4.586a.5.5 0 0 0-.55 0L5.26 8.134a.5.5 0 0 0 .275.917H12.5z"/></symbol><symbol id="TV" viewBox="0 0 24 24"><rect width="21" height="14" x="1.5" y="4.5" stroke="#2E2E2E" stroke-linecap="round" rx="2.5"/><rect width="17" height="10" x="3.5" y="6.5" stroke="#2E2E2E" stroke-linecap="round" rx="1.5"/><path stroke="#2E2E2E" stroke-linecap="round" d="M15.5 20.5h-7"/></symbol><symbol id="wave" viewBox="0 0 24 24"><rect width="15" height="22" x="-.5" y="-.5" stroke="#2E2E2E" stroke-linecap="round" rx="2.5" transform="matrix(0 -1 -1 0 23 20)"/><rect width="11" height="12" x="-.5" y="-.5" stroke="#2E2E2E" stroke-linecap="round" rx="1.5" transform="matrix(0 -1 -1 0 15 18)"/><path stroke="#2E2E2E" stroke-linecap="round" d="M17.5 5.5v15"/><circle cx="20.5" cy="16.5" r="1" stroke="#2E2E2E"/><circle cx="20.5" cy="12.5" r="1" stroke="#2E2E2E"/></symbol><symbol id="wi-fi" viewBox="0 0 24 25"><path stroke="#2E2E2E" stroke-linecap="round" d="M6.705 15.146a7.447 7.447 0 0 1 2.46-1.686 7.05 7.05 0 0 1 2.876-.55c.983.02 1.953.248 2.853.67a7.502 7.502 0 0 1 2.397 1.787M4.384 12.704a10.18 10.18 0 0 1 3.473-2.668 9.558 9.558 0 0 1 4.192-.897 9.583 9.583 0 0 1 4.164 1.034 10.238 10.238 0 0 1 3.395 2.78M2 10.393A12.933 12.933 0 0 1 6.495 6.65a12.069 12.069 0 0 1 5.569-1.28c1.922.027 3.815.518 5.535 1.437A13 13 0 0 1 22 10.676"/><circle cx="12" cy="18.367" r="1.5" stroke="#2E2E2E"/></symbol><symbol id="WiFI" viewBox="0 0 24 24"><path stroke="#2E2E2E" stroke-linecap="round" d="M6.705 14.779a7.447 7.447 0 0 1 2.46-1.686 7.053 7.053 0 0 1 2.876-.55c.983.02 1.953.248 2.853.67A7.503 7.503 0 0 1 17.291 15M4.384 12.337a10.18 10.18 0 0 1 3.473-2.668 9.558 9.558 0 0 1 4.192-.897 9.584 9.584 0 0 1 4.164 1.033 10.239 10.239 0 0 1 3.395 2.78M2 10.026a12.933 12.933 0 0 1 4.495-3.744 12.069 12.069 0 0 1 5.569-1.28c1.922.026 3.815.518 5.535 1.437A13 13 0 0 1 22 10.309"/><circle cx="12" cy="18" r="1.5" stroke="#2E2E2E"/></symbol><symbol id="wine" viewBox="0 0 24 25"><path fill="#2E2E2E" fill-rule="evenodd" d="M3 4.817v-1.45h18v1.45l-8.421 9.357v6.035h5.263v1.158H6.158V20.21h5.263v-6.035L3 4.817zm16.706-.292H4.294l2.748 3.053h9.916l2.748-3.053zM12 13.085l3.916-4.35H8.084L12 13.086z" clip-rule="evenodd"/></symbol></svg>